<?xml version="1.0" encoding="iso-8859-1"?>
<!-- Generator: Adobe Illustrator 19.0.0, SVG Export Plug-In . SVG Version: 6.00 Build 0)  -->
<svg version="1.1" id="Capa_1" xmlns="http://www.w3.org/2000/svg" xmlns:xlink="http://www.w3.org/1999/xlink" x="0px" y="0px"
	 viewBox="0 0 512 512" style="enable-background:new 0 0 512 512;" xml:space="preserve">
<path style="fill:#ADE5FF;" d="M149.209,53.015c-0.014-15.855,7.024-30.338,20.122-37.901c15.286-8.826,34.61-5.794,49.543,6.057
	l72.765,1.219c15.121-12.854,35.23-16.396,51.027-7.276c13.1,7.563,20.137,22.045,20.122,37.901H149.209z"/>
<path style="fill:#FFC66C;" d="M256,141.012c-30.608,0-55.421-29.324-55.421-65.498S225.392,10.016,256,10.016
	s55.421,29.324,55.421,65.498S286.609,141.012,256,141.012z"/>
<path style="fill:#FE8F8D;" d="M200.579,75.514c0-4.642,0.415-9.169,1.192-13.539c-16.729-12.914-38.075-16.072-55.024-6.192
	c-23.757,13.851-29.875,48.061-13.666,76.413s48.61,40.107,72.368,26.256c10.425-6.078,17.45-16.075,20.686-27.778
	C210.77,119.032,200.579,98.686,200.579,75.514z"/>
<path style="fill:#A0E557;" d="M365.253,55.785c-16.949-9.882-38.294-6.722-55.024,6.192c0.777,4.369,1.192,8.896,1.192,13.539
	c0,23.172-10.192,43.519-25.556,55.162c3.236,11.703,10.262,21.701,20.686,27.778c23.757,13.851,56.157,2.095,72.368-26.256
	C395.129,103.848,389.01,69.635,365.253,55.785z"/>
<path style="fill:#ADE5FF;" d="M356.496,374.004H155.503v104.414c0,13.025,10.559,23.582,23.582,23.582h153.828
	c13.025,0,23.582-10.559,23.582-23.582L356.496,374.004L356.496,374.004z"/>
<path style="fill:#4DBAF6;" d="M346.331,294.007H165.67c-14.175,0-25.666,11.491-25.666,25.666v54.331h231.992v-54.331
	C371.996,305.497,360.505,294.007,346.331,294.007z"/>
<path style="fill:#70DDD6;" d="M288.499,229.009L288.499,229.009c-17.948,0-32.499,14.551-32.499,32.499v32.499h32.499
	c17.948,0,32.499-14.551,32.499-32.499l0,0C320.998,243.559,306.448,229.009,288.499,229.009z"/>
<path style="fill:#ADE5FF;" d="M223.501,229.009L223.501,229.009c17.948,0,32.499,14.551,32.499,32.499v32.499h-32.499
	c-17.948,0-32.499-14.551-32.499-32.499l0,0C191.002,243.559,205.552,229.009,223.501,229.009z"/>
<path d="M372.624,48.6c-1.263-18.18-10.378-33.729-24.955-42.146C330.182-3.64,308.11-1.73,289.997,11.035
	c-9.914-6.987-21.554-11.019-33.996-11.019c-12.444,0-24.084,4.032-33.999,11.021c-18.092-12.705-40.353-14.581-57.669-4.583
	c-14.579,8.417-23.693,23.965-24.955,42.146c-26.517,17.389-33.345,56.434-14.976,88.561c9.994,17.478,25.987,30.252,43.88,35.047
	c5.114,1.37,10.252,2.048,15.303,2.048c6.149,0,12.162-1.02,17.842-3.004l29.235,48.373c-2.33-0.397-4.719-0.615-7.16-0.615
	c-23.434,0-42.499,19.064-42.499,42.499c0,8.259,2.376,15.969,6.469,22.499h-21.801c-19.666,0-35.666,15.999-35.666,35.666v54.331
	c0,5.522,4.477,10,10,10h6v94.414c0,18.517,15.064,33.582,33.582,33.582h152.828c18.517,0,33.582-15.065,33.582-33.582v-30.416
	c0-5.522-4.477-10-10-10s-10,4.478-10,10v30.416c0,7.489-6.094,13.583-13.583,13.583H179.586c-7.49,0-13.583-6.094-13.583-13.583
	v-94.414h79.997v32.332c0,5.522,4.477,10,10,10c5.523,0,10-4.478,10-10v-32.332h105.996c5.523,0,10-4.478,10-10v-54.331
	c0-19.666-15.999-35.666-35.666-35.666h-21.801c4.093-6.53,6.469-14.241,6.469-22.499c0-23.434-19.064-42.499-42.499-42.499
	c-2.524,0-4.993,0.234-7.397,0.658l29.36-48.457c5.713,2.011,11.764,3.046,17.953,3.046c5.05,0,10.191-0.678,15.303-2.048
	c17.893-4.794,33.887-17.568,43.88-35.047C405.969,105.033,399.14,65.988,372.624,48.6z M337.668,23.774
	c6.18,3.568,10.719,9.461,13.137,16.678c-11.319-1.543-23.243,0.496-34.439,5.978c-2.83-7.794-6.765-14.922-11.572-21.135
	C315.752,18.936,328.03,18.209,337.668,23.774z M301.422,75.514c0,30.602-20.376,55.498-45.422,55.498s-45.421-24.896-45.421-55.498
	s20.376-55.498,45.421-55.498S301.422,44.912,301.422,75.514z M293.215,161.079l-27.216,44.919v-55.868
	c5.208-0.926,10.212-2.573,14.941-4.833C284.114,151.346,288.263,156.691,293.215,161.079z M231.056,145.296
	c4.731,2.26,9.735,3.908,14.944,4.834v56.21l-27.306-45.182C223.689,156.754,227.866,151.382,231.056,145.296z M174.332,23.774
	c9.536-5.505,21.903-4.788,32.865,1.533c-4.804,6.212-8.736,13.337-11.564,21.125c-11.194-5.469-23.132-7.495-34.445-5.961
	C163.606,33.245,168.147,27.345,174.332,23.774z M173.457,152.889c-12.778-3.424-24.33-12.775-31.694-25.655
	c-13.471-23.56-8.976-51.736,10.021-62.811c11.427-6.662,26.19-5.719,39.255,2.292c-0.292,2.889-0.459,5.821-0.459,8.798
	c0,23.436,9.302,44.412,23.868,58.27c-3.057,6.936-7.842,12.422-14.035,16.031C192.497,154.43,183.174,155.493,173.457,152.889z
	 M201.002,261.508c0-12.407,10.093-22.499,22.499-22.499S246,249.101,246,261.508v1.212v21.287h-22.499
	C211.095,284.007,201.002,273.913,201.002,261.508z M150.003,364.004v-44.332c0-8.639,7.028-15.666,15.666-15.666H246v59.998
	H150.003z M361.996,319.673v44.332h-95.997v-59.998h80.33C354.969,304.006,361.996,311.034,361.996,319.673z M310.998,261.508
	c0,12.406-10.093,22.499-22.499,22.499h-22.499V262.72v-1.212c0-12.407,10.093-22.499,22.499-22.499
	C300.905,239.008,310.998,249.101,310.998,261.508z M370.238,127.234c-7.365,12.881-18.916,22.231-31.694,25.655
	c-9.718,2.604-19.038,1.541-26.956-3.075c-6.187-3.607-10.97-9.099-14.03-16.035c14.564-13.859,23.864-34.832,23.864-58.265
	c0-2.975-0.166-5.904-0.458-8.79c13.068-8.026,27.783-8.989,39.254-2.301C379.213,75.498,383.707,103.675,370.238,127.234z"/>
<path d="M348.927,404.433c-1.86,1.86-2.93,4.44-2.93,7.07s1.07,5.21,2.93,7.069c1.86,1.86,4.44,2.931,7.07,2.931
	s5.21-1.07,7.07-2.931c1.86-1.859,2.93-4.439,2.93-7.069s-1.07-5.21-2.93-7.07c-1.86-1.86-4.44-2.93-7.07-2.93
	S350.787,402.572,348.927,404.433z"/>
<path d="M256,446.332c-2.63,0-5.21,1.069-7.07,2.93c-1.86,1.86-2.93,4.44-2.93,7.07c0,2.64,1.07,5.21,2.93,7.069
	c1.86,1.87,4.44,2.931,7.07,2.931s5.21-1.061,7.07-2.931c1.86-1.859,2.93-4.439,2.93-7.069s-1.07-5.21-2.93-7.07
	S258.63,446.332,256,446.332z"/>
<path d="M91.695,168.833h-6.859c-5.523,0-10,4.477-10,10s4.477,10,10,10h6.859c5.523,0,10-4.477,10-10
	S97.218,168.833,91.695,168.833z"/>
<path d="M43.177,168.833h-6.859c-5.523,0-10,4.477-10,10s4.477,10,10,10h6.859c5.523,0,10-4.477,10-10S48.7,168.833,43.177,168.833z
	"/>
<path d="M64.006,189.663c-5.523,0-10,4.477-10,10v6.859c0,5.523,4.477,10,10,10s10-4.477,10-10v-6.859
	C74.006,194.14,69.529,189.663,64.006,189.663z"/>
<path d="M64.006,141.145c-5.523,0-10,4.477-10,10v6.859c0,5.523,4.477,10,10,10s10-4.477,10-10v-6.859
	C74.006,145.622,69.529,141.145,64.006,141.145z"/>
<path d="M475.682,438.002h-6.859c-5.523,0-10,4.478-10,10s4.477,10,10,10h6.859c5.523,0,10-4.478,10-10
	S481.205,438.002,475.682,438.002z"/>
<path d="M427.164,438.002h-6.859c-5.523,0-10,4.478-10,10s4.477,10,10,10h6.859c5.523,0,10-4.478,10-10
	S432.687,438.002,427.164,438.002z"/>
<path d="M447.993,458.832c-5.523,0-10,4.478-10,10v6.858c0,5.522,4.477,10,10,10s10-4.478,10-10v-6.858
	C457.993,463.309,453.516,458.832,447.993,458.832z"/>
<path d="M447.993,410.313c-5.523,0-10,4.478-10,10v6.858c0,5.522,4.477,10,10,10s10-4.478,10-10v-6.858
	C457.993,414.791,453.516,410.313,447.993,410.313z"/>
<g>
</g>
<g>
</g>
<g>
</g>
<g>
</g>
<g>
</g>
<g>
</g>
<g>
</g>
<g>
</g>
<g>
</g>
<g>
</g>
<g>
</g>
<g>
</g>
<g>
</g>
<g>
</g>
<g>
</g>
</svg>
