<?xml version="1.0" encoding="UTF-8" standalone="no"?><!DOCTYPE svg PUBLIC "-//W3C//DTD SVG 1.1//EN" "http://www.w3.org/Graphics/SVG/1.1/DTD/svg11.dtd"><svg width="100%" height="100%" viewBox="0 0 1606 905" version="1.1" xmlns="http://www.w3.org/2000/svg" xmlns:xlink="http://www.w3.org/1999/xlink" xml:space="preserve" xmlns:serif="http://www.serif.com/" style="fill-rule:evenodd;clip-rule:evenodd;stroke-linejoin:round;stroke-miterlimit:1.41421;"><g id="Math-patterns" serif:id="Math patterns"><g opacity="0.75"><path d="M0.5,0.5l0,903.783l1604.21,0l0,-903.783l-1604.21,0Z" style="fill:none;"/><clipPath id="_clip1"><path d="M0.5,0.5l0,903.783l1604.21,0l0,-903.783l-1604.21,0Z"/></clipPath><g clip-path="url(#_clip1)"><g><path d="M42.16,904.282c-3.844,0.022 -7.537,-1.499 -10.251,-4.223c-2.724,-2.713 -4.245,-6.406 -4.223,-10.251l0,-12.711l-12.711,0c-3.845,0.022 -7.538,-1.5 -10.251,-4.224c-2.725,-2.713 -4.246,-6.406 -4.224,-10.251c-0.022,-3.844 1.499,-7.537 4.224,-10.251c2.713,-2.724 6.406,-4.246 10.251,-4.223l12.711,0l0,-12.712c-0.022,-3.845 1.499,-7.538 4.223,-10.251c2.714,-2.724 6.407,-4.246 10.251,-4.223c3.845,-0.023 7.538,1.499 10.251,4.223c2.724,2.713 4.246,6.406 4.223,10.251l0,12.712l12.712,0c3.845,-0.023 7.538,1.499 10.251,4.223c2.724,2.714 4.246,6.407 4.223,10.251c0.023,3.845 -1.499,7.538 -4.223,10.251c-2.713,2.724 -6.406,4.246 -10.251,4.224l-12.794,0l0,12.711c0.023,3.845 -1.499,7.538 -4.223,10.251c-2.693,2.704 -6.352,4.223 -10.169,4.223Z" style="fill:#0a050b;fill-opacity:0.0862745;"/><path d="M42.16,898.029c4.529,0 8.201,-3.671 8.201,-8.201l0,-15.827c0,-1.721 1.395,-3.116 3.116,-3.116l15.787,0c4.529,0 8.201,-3.672 8.201,-8.201c0,-4.53 -3.672,-8.201 -8.201,-8.201l-15.828,0c-1.721,0 -3.116,-1.395 -3.116,-3.116l0,-15.828c0,-4.529 -3.672,-8.201 -8.201,-8.201c-2.158,0.004 -4.228,0.858 -5.761,2.378c-1.52,1.533 -2.374,3.603 -2.378,5.761l0,16.033c0,1.721 -1.395,3.116 -3.116,3.116l-15.807,0c-4.53,0 -8.201,3.672 -8.201,8.201c0,4.53 3.671,8.201 8.201,8.201l15.827,0c1.721,0 3.117,1.395 3.117,3.116l0,15.746c0.003,2.158 0.858,4.229 2.378,5.761c1.538,1.525 3.616,2.38 5.781,2.378Z" style="fill:#fff;fill-opacity:0.0862745;"/></g><g><path d="M37.339,274.768c-3.844,0.021 -7.537,-1.499 -10.251,-4.224c-2.724,-2.713 -4.245,-6.406 -4.223,-10.251l0,-12.711l-12.712,0c-3.844,0.022 -7.537,-1.499 -10.251,-4.223c-2.724,-2.714 -4.245,-6.407 -4.223,-10.251c-0.022,-3.845 1.499,-7.538 4.223,-10.251c2.714,-2.725 6.407,-4.246 10.251,-4.224l12.712,0l0,-12.711c-0.022,-3.845 1.499,-7.538 4.223,-10.251c2.714,-2.724 6.407,-4.246 10.251,-4.224c3.845,-0.022 7.538,1.5 10.251,4.224c2.724,2.713 4.246,6.406 4.223,10.251l0,12.711l12.712,0c3.845,-0.022 7.538,1.499 10.251,4.224c2.724,2.713 4.246,6.406 4.223,10.251c0.023,3.844 -1.499,7.537 -4.223,10.251c-2.713,2.724 -6.406,4.245 -10.251,4.223l-12.794,0l0,12.711c0.023,3.845 -1.499,7.538 -4.223,10.251c-2.693,2.704 -6.352,4.224 -10.169,4.224Z" style="fill:#0a050b;fill-opacity:0.0862745;"/><path d="M37.339,268.515c4.529,0 8.201,-3.672 8.201,-8.201l0,-15.828c0,-1.721 1.395,-3.116 3.116,-3.116l15.786,0c4.53,0 8.201,-3.672 8.201,-8.201c0,-4.529 -3.671,-8.201 -8.201,-8.201l-15.827,0c-1.721,0 -3.116,-1.395 -3.116,-3.116l0,-15.828c0,-4.529 -3.672,-8.201 -8.201,-8.201c-2.158,0.004 -4.228,0.858 -5.761,2.379c-1.52,1.532 -2.374,3.602 -2.378,5.761l0,16.032c0,1.722 -1.395,3.117 -3.116,3.117l-15.807,0c-4.53,0 -8.201,3.671 -8.201,8.201c0,4.529 3.671,8.2 8.201,8.2l15.827,0c1.721,0 3.116,1.396 3.116,3.117l0,15.745c0.004,2.159 0.858,4.229 2.379,5.761c1.537,1.525 3.616,2.38 5.781,2.379Z" style="fill:#fff;fill-opacity:0.0862745;"/></g><g><path d="M1130.72,903.62c-3.845,0.022 -7.538,-1.499 -10.252,-4.223c-2.724,-2.713 -4.245,-6.406 -4.223,-10.251l0,-12.711l-12.711,0c-3.845,0.022 -7.538,-1.499 -10.251,-4.224c-2.725,-2.713 -4.246,-6.406 -4.224,-10.251c-0.022,-3.844 1.499,-7.537 4.224,-10.251c2.713,-2.724 6.406,-4.246 10.251,-4.223l12.711,0l0,-12.712c-0.022,-3.845 1.499,-7.538 4.223,-10.251c2.714,-2.724 6.407,-4.246 10.252,-4.223c3.844,-0.023 7.537,1.499 10.25,4.223c2.724,2.713 4.246,6.406 4.223,10.251l0,12.712l12.712,0c3.845,-0.023 7.538,1.499 10.251,4.223c2.724,2.714 4.246,6.407 4.223,10.251c0.023,3.845 -1.499,7.538 -4.223,10.251c-2.713,2.725 -6.406,4.246 -10.251,4.224l-12.794,0l0,12.711c0.023,3.845 -1.499,7.538 -4.223,10.251c-2.693,2.704 -6.352,4.223 -10.168,4.223Z" style="fill:#0a050b;fill-opacity:0.0862745;"/><path d="M1130.72,897.367c4.528,0 8.2,-3.671 8.2,-8.2l0,-15.828c0,-1.721 1.396,-3.116 3.116,-3.116l15.787,0c4.529,0 8.201,-3.672 8.201,-8.201c0,-4.53 -3.672,-8.201 -8.201,-8.201l-15.828,0c-1.72,0 -3.116,-1.395 -3.116,-3.116l0,-15.828c0,-4.529 -3.672,-8.201 -8.2,-8.201c-2.159,0.004 -4.229,0.858 -5.762,2.378c-1.52,1.533 -2.374,3.603 -2.378,5.761l0,16.033c0,1.721 -1.395,3.116 -3.116,3.116l-15.807,0c-4.53,0 -8.201,3.672 -8.201,8.201c0,4.53 3.671,8.201 8.201,8.201l15.827,0c1.722,0 3.117,1.395 3.117,3.116l0,15.746c0.003,2.158 0.858,4.229 2.378,5.761c1.538,1.525 3.616,2.38 5.782,2.378Z" style="fill:#fff;fill-opacity:0.0862745;"/></g><g><path d="M1055.99,290.368c-3.844,0.021 -7.537,-1.499 -10.251,-4.224c-2.724,-2.713 -4.245,-6.406 -4.223,-10.251l0,-12.711l-12.711,0c-3.845,0.022 -7.538,-1.499 -10.251,-4.223c-2.725,-2.714 -4.246,-6.407 -4.224,-10.251c-0.022,-3.845 1.499,-7.538 4.224,-10.252c2.713,-2.724 6.406,-4.246 10.251,-4.223l12.711,0l0,-12.711c-0.022,-3.845 1.499,-7.538 4.223,-10.251c2.714,-2.724 6.407,-4.246 10.251,-4.224c3.845,-0.022 7.538,1.5 10.251,4.224c2.724,2.713 4.246,6.406 4.223,10.251l0,12.711l12.712,0c3.845,-0.023 7.538,1.499 10.251,4.223c2.724,2.714 4.246,6.407 4.223,10.252c0.023,3.844 -1.499,7.537 -4.223,10.251c-2.713,2.724 -6.406,4.245 -10.251,4.223l-12.794,0l0,12.711c0.023,3.845 -1.499,7.538 -4.223,10.251c-2.693,2.704 -6.352,4.224 -10.169,4.224Z" style="fill:#0a050b;fill-opacity:0.0862745;"/><path d="M1055.99,284.115c4.529,0 8.201,-3.672 8.201,-8.201l0,-15.828c0,-1.721 1.395,-3.116 3.116,-3.116l15.787,0c4.529,0 8.2,-3.672 8.2,-8.201c0,-4.529 -3.671,-8.201 -8.2,-8.201l-15.828,0c-1.721,0 -3.116,-1.395 -3.116,-3.116l0,-15.828c0,-4.529 -3.672,-8.201 -8.201,-8.201c-2.158,0.004 -4.228,0.858 -5.761,2.379c-1.52,1.532 -2.374,3.602 -2.378,5.761l0,16.032c0,1.722 -1.395,3.117 -3.116,3.117l-15.807,0c-4.53,0 -8.201,3.671 -8.201,8.201c0,4.529 3.671,8.2 8.201,8.2l15.827,0c1.721,0 3.117,1.396 3.117,3.117l0,15.745c0.003,2.159 0.858,4.229 2.378,5.761c1.537,1.525 3.616,2.38 5.781,2.379Z" style="fill:#fff;fill-opacity:0.0862745;"/></g><g><path d="M994.736,581.084c-3.844,0.022 -7.537,-1.499 -10.251,-4.223c-2.724,-2.713 -4.245,-6.406 -4.223,-10.251l0,-12.711l-12.712,0c-3.844,0.022 -7.537,-1.5 -10.251,-4.224c-2.724,-2.713 -4.245,-6.406 -4.223,-10.251c-0.022,-3.844 1.499,-7.537 4.223,-10.251c2.714,-2.724 6.407,-4.246 10.251,-4.223l12.712,0l0,-12.712c-0.022,-3.845 1.499,-7.538 4.223,-10.251c2.714,-2.724 6.407,-4.246 10.251,-4.223c3.845,-0.023 7.538,1.499 10.251,4.223c2.724,2.713 4.246,6.406 4.223,10.251l0,12.712l12.711,0c3.846,-0.023 7.539,1.499 10.251,4.223c2.725,2.714 4.246,6.407 4.224,10.251c0.022,3.845 -1.499,7.538 -4.224,10.251c-2.712,2.724 -6.405,4.246 -10.251,4.224l-12.793,0l0,12.711c0.023,3.845 -1.499,7.538 -4.223,10.251c-2.693,2.704 -6.352,4.223 -10.169,4.223Z" style="fill:#0a050b;fill-opacity:0.0862745;"/><path d="M994.736,574.831c4.529,0 8.201,-3.671 8.201,-8.201l0,-15.827c0,-1.721 1.395,-3.116 3.116,-3.116l15.786,0c4.53,0 8.201,-3.672 8.201,-8.201c0,-4.53 -3.671,-8.201 -8.201,-8.201l-15.827,0c-1.721,0 -3.116,-1.395 -3.116,-3.116l0,-15.828c0,-4.53 -3.672,-8.201 -8.201,-8.201c-2.158,0.004 -4.228,0.858 -5.761,2.378c-1.52,1.533 -2.375,3.603 -2.378,5.761l0,16.033c0,1.721 -1.395,3.116 -3.116,3.116l-15.808,0c-4.529,0 -8.2,3.672 -8.2,8.201c0,4.53 3.671,8.201 8.2,8.201l15.828,0c1.721,0 3.116,1.395 3.116,3.116l0,15.746c0.004,2.158 0.858,4.228 2.379,5.761c1.537,1.525 3.616,2.38 5.781,2.378Z" style="fill:#fff;fill-opacity:0.0862745;"/></g><g><path d="M417.22,654.425c-3.845,0.021 -7.538,-1.5 -10.251,-4.224c-2.725,-2.713 -4.246,-6.406 -4.224,-10.251l0,-12.711l-12.711,0c-3.845,0.022 -7.538,-1.499 -10.251,-4.224c-2.724,-2.713 -4.246,-6.406 -4.224,-10.251c-0.022,-3.844 1.5,-7.537 4.224,-10.251c2.713,-2.724 6.406,-4.246 10.251,-4.223l12.711,0l0,-12.711c-0.022,-3.846 1.499,-7.539 4.224,-10.252c2.713,-2.724 6.406,-4.246 10.251,-4.223c3.844,-0.023 7.537,1.499 10.25,4.223c2.724,2.713 4.246,6.406 4.224,10.252l0,12.711l12.711,0c3.845,-0.023 7.538,1.499 10.251,4.223c2.724,2.714 4.246,6.407 4.223,10.251c0.023,3.845 -1.499,7.538 -4.223,10.251c-2.713,2.725 -6.406,4.246 -10.251,4.224l-12.793,0l0,12.711c0.022,3.845 -1.5,7.538 -4.224,10.251c-2.693,2.704 -6.352,4.224 -10.168,4.224Z" style="fill:#0a050b;fill-opacity:0.0862745;"/><path d="M417.22,648.171c4.529,0 8.201,-3.671 8.201,-8.2l0,-15.828c0,-1.721 1.395,-3.116 3.115,-3.116l15.787,0c4.529,0 8.201,-3.672 8.201,-8.201c0,-4.53 -3.672,-8.201 -8.201,-8.201l-15.828,0c-1.72,0 -3.115,-1.395 -3.115,-3.116l0,-15.828c0,-4.529 -3.672,-8.201 -8.201,-8.201c-2.159,0.004 -4.229,0.858 -5.761,2.378c-1.521,1.533 -2.375,3.603 -2.379,5.762l0,16.032c0,1.721 -1.395,3.116 -3.116,3.116l-15.807,0c-4.529,0 -8.201,3.672 -8.201,8.201c0,4.53 3.672,8.201 8.201,8.201l15.828,0c1.721,0 3.116,1.395 3.116,3.116l0,15.746c0.003,2.158 0.858,4.229 2.378,5.761c1.538,1.525 3.616,2.38 5.782,2.378Z" style="fill:#fff;fill-opacity:0.0862745;"/></g><g><path d="M412.399,24.91c-3.845,0.021 -7.538,-1.499 -10.252,-4.224c-2.724,-2.713 -4.245,-6.406 -4.223,-10.251l0,-12.711l-12.711,0c-3.845,0.022 -7.538,-1.499 -10.251,-4.223c-2.725,-2.714 -4.246,-6.407 -4.224,-10.251c-0.022,-3.845 1.499,-7.538 4.224,-10.251c2.713,-2.725 6.406,-4.246 10.251,-4.224l12.711,0l0,-12.711c-0.022,-3.845 1.499,-7.538 4.223,-10.251c2.714,-2.724 6.407,-4.246 10.252,-4.224c3.844,-0.022 7.537,1.5 10.25,4.224c2.724,2.713 4.246,6.406 4.223,10.251l0,12.711l12.712,0c3.845,-0.022 7.538,1.499 10.251,4.224c2.724,2.713 4.246,6.406 4.223,10.251c0.023,3.844 -1.499,7.537 -4.223,10.251c-2.713,2.724 -6.406,4.245 -10.251,4.223l-12.794,0l0,12.711c0.023,3.845 -1.499,7.538 -4.223,10.251c-2.693,2.704 -6.352,4.224 -10.168,4.224Z" style="fill:#0a050b;fill-opacity:0.0862745;"/><path d="M412.399,18.657c4.528,0 8.2,-3.672 8.2,-8.201l0,-15.828c0,-1.721 1.396,-3.116 3.116,-3.116l15.787,0c4.529,0 8.201,-3.671 8.201,-8.201c0,-4.529 -3.672,-8.201 -8.201,-8.201l-15.828,0c-1.721,0 -3.116,-1.395 -3.116,-3.116l0,-15.828c0,-4.529 -3.672,-8.2 -8.2,-8.2c-2.159,0.003 -4.229,0.858 -5.762,2.378c-1.52,1.532 -2.374,3.602 -2.378,5.761l0,16.033c0,1.721 -1.395,3.116 -3.116,3.116l-15.807,0c-4.53,0 -8.201,3.671 -8.201,8.201c0,4.529 3.671,8.2 8.201,8.2l15.827,0c1.722,0 3.117,1.396 3.117,3.117l0,15.745c0.003,2.159 0.858,4.229 2.378,5.761c1.538,1.525 3.616,2.38 5.782,2.379Z" style="fill:#fff;fill-opacity:0.0862745;"/></g><g><path d="M1505.78,653.763c-3.845,0.021 -7.538,-1.5 -10.251,-4.224c-2.725,-2.713 -4.246,-6.406 -4.224,-10.251l0,-12.711l-12.711,0c-3.845,0.022 -7.538,-1.499 -10.251,-4.224c-2.724,-2.713 -4.246,-6.406 -4.223,-10.251c-0.023,-3.844 1.499,-7.537 4.223,-10.251c2.713,-2.724 6.406,-4.246 10.251,-4.223l12.711,0l0,-12.711c-0.022,-3.846 1.499,-7.539 4.224,-10.251c2.713,-2.725 6.406,-4.246 10.251,-4.224c3.844,-0.022 7.537,1.499 10.25,4.224c2.724,2.712 4.246,6.405 4.224,10.251l0,12.711l12.711,0c3.845,-0.023 7.538,1.499 10.251,4.223c2.724,2.714 4.246,6.407 4.223,10.251c0.023,3.845 -1.499,7.538 -4.223,10.251c-2.713,2.725 -6.406,4.246 -10.251,4.224l-12.793,0l0,12.711c0.022,3.845 -1.5,7.538 -4.224,10.251c-2.693,2.704 -6.352,4.224 -10.168,4.224Z" style="fill:#0a050b;fill-opacity:0.0862745;"/><path d="M1505.78,647.509c4.529,0 8.201,-3.671 8.201,-8.2l0,-15.828c0,-1.721 1.395,-3.116 3.115,-3.116l15.787,0c4.529,0 8.201,-3.672 8.201,-8.201c0,-4.53 -3.672,-8.201 -8.201,-8.201l-15.828,0c-1.72,0 -3.115,-1.395 -3.115,-3.116l0,-15.828c0,-4.529 -3.672,-8.201 -8.201,-8.201c-2.159,0.004 -4.229,0.858 -5.761,2.378c-1.521,1.533 -2.375,3.603 -2.379,5.762l0,16.032c0,1.721 -1.395,3.117 -3.116,3.117l-15.807,0c-4.529,0 -8.201,3.671 -8.201,8.2c0,4.53 3.672,8.201 8.201,8.201l15.828,0c1.721,0 3.116,1.395 3.116,3.116l0,15.746c0.004,2.158 0.858,4.229 2.378,5.761c1.538,1.525 3.616,2.38 5.782,2.378Z" style="fill:#fff;fill-opacity:0.0862745;"/></g><g><path d="M1431.05,40.51c-3.845,0.021 -7.538,-1.499 -10.251,-4.224c-2.725,-2.713 -4.246,-6.406 -4.224,-10.251l0,-12.711l-12.711,0c-3.845,0.022 -7.538,-1.499 -10.251,-4.223c-2.724,-2.714 -4.246,-6.407 -4.224,-10.251c-0.022,-3.845 1.5,-7.538 4.224,-10.251c2.713,-2.725 6.406,-4.246 10.251,-4.224l12.711,0l0,-12.711c-0.022,-3.845 1.499,-7.538 4.224,-10.251c2.713,-2.724 6.406,-4.246 10.251,-4.224c3.844,-0.022 7.537,1.5 10.25,4.224c2.724,2.713 4.246,6.406 4.224,10.251l0,12.711l12.711,0c3.845,-0.022 7.538,1.499 10.251,4.224c2.724,2.713 4.246,6.406 4.223,10.251c0.023,3.844 -1.499,7.537 -4.223,10.251c-2.713,2.724 -6.406,4.245 -10.251,4.223l-12.793,0l0,12.711c0.022,3.845 -1.5,7.538 -4.224,10.251c-2.693,2.704 -6.352,4.224 -10.168,4.224Z" style="fill:#0a050b;fill-opacity:0.0862745;"/><path d="M1431.05,34.257c4.529,0 8.2,-3.672 8.2,-8.201l0,-15.828c0,-1.721 1.396,-3.116 3.116,-3.116l15.787,0c4.529,0 8.201,-3.671 8.201,-8.201c0,-4.529 -3.672,-8.201 -8.201,-8.201l-15.828,0c-1.72,0 -3.116,-1.395 -3.116,-3.116l0,-15.828c0,-4.529 -3.671,-8.2 -8.2,-8.2c-2.159,0.003 -4.229,0.858 -5.761,2.378c-1.521,1.532 -2.375,3.602 -2.379,5.761l0,16.032c0,1.722 -1.395,3.117 -3.116,3.117l-15.807,0c-4.53,0 -8.201,3.671 -8.201,8.201c0,4.529 3.671,8.2 8.201,8.2l15.827,0c1.722,0 3.117,1.396 3.117,3.117l0,15.745c0.003,2.159 0.858,4.229 2.378,5.761c1.538,1.525 3.616,2.38 5.782,2.379Z" style="fill:#fff;fill-opacity:0.0862745;"/></g><g><path d="M657.286,491.194c-3.844,0.022 -7.537,-1.499 -10.251,-4.223c-2.724,-2.714 -4.245,-6.407 -4.223,-10.251l0,-12.712l-12.711,0c-3.845,0.022 -7.538,-1.499 -10.251,-4.223c-2.725,-2.714 -4.246,-6.406 -4.224,-10.251c-0.022,-3.845 1.499,-7.538 4.224,-10.251c2.713,-2.724 6.406,-4.246 10.251,-4.224l12.711,0l0,-12.711c-0.022,-3.845 1.499,-7.538 4.223,-10.251c2.714,-2.724 6.407,-4.246 10.251,-4.223c3.845,-0.023 7.538,1.499 10.251,4.223c2.724,2.713 4.246,6.406 4.223,10.251l0,12.711l12.712,0c3.845,-0.022 7.538,1.5 10.251,4.224c2.724,2.713 4.246,6.406 4.223,10.251c0.023,3.845 -1.499,7.537 -4.223,10.251c-2.713,2.724 -6.406,4.245 -10.251,4.223l-12.794,0l0,12.712c0.023,3.844 -1.499,7.537 -4.223,10.251c-2.693,2.703 -6.352,4.223 -10.169,4.223Z" style="fill:#0a050b;fill-opacity:0.0862745;"/><path d="M657.286,484.941c4.529,0 8.201,-3.671 8.201,-8.201l0,-15.827c0,-1.722 1.395,-3.117 3.116,-3.117l15.787,0c4.529,0 8.2,-3.671 8.2,-8.201c0,-4.529 -3.671,-8.2 -8.2,-8.2l-15.828,0c-1.721,0 -3.116,-1.396 -3.116,-3.117l0,-15.827c0,-4.53 -3.672,-8.201 -8.201,-8.201c-2.158,0.003 -4.228,0.858 -5.761,2.378c-1.52,1.533 -2.374,3.602 -2.378,5.761l0,16.033c0,1.721 -1.395,3.116 -3.116,3.116l-15.807,0c-4.53,0 -8.201,3.671 -8.201,8.201c0,4.529 3.671,8.201 8.201,8.201l15.827,0c1.721,0 3.117,1.395 3.117,3.116l0,15.746c0.003,2.158 0.858,4.228 2.378,5.761c1.537,1.525 3.616,2.38 5.781,2.378Z" style="fill:#fff;fill-opacity:0.0862745;"/></g><g><path d="M53.827,469.109c-4.548,-1.329 -8.373,-4.427 -10.618,-8.599l-0.153,-0.283c-2.147,-4.072 -2.622,-8.82 -1.325,-13.236l19.097,-64.016c1.329,-4.549 4.426,-8.374 8.599,-10.618c8.588,-4.654 19.323,-1.464 23.976,7.124c0.006,0.011 0.012,0.022 0.017,0.034c2.262,4.163 2.758,9.06 1.377,13.593l-19.097,64.016c-1.328,4.549 -4.426,8.374 -8.599,10.618c-4.076,2.171 -8.841,2.662 -13.274,1.367Z" style="fill:#0a050b;fill-opacity:0.0862745;"/><path d="M50.064,456.886c2.736,4.865 8.898,6.591 13.763,3.855c2.235,-1.257 3.909,-3.317 4.682,-5.762l19.097,-64.016c1.508,-5.374 -1.626,-10.953 -7,-12.461c-2.469,-0.693 -5.11,-0.421 -7.386,0.761c-2.335,1.274 -4.073,3.417 -4.838,5.966l-19.097,64.016c-0.727,2.472 -0.483,5.129 0.684,7.428l0.095,0.213Z" style="fill:#fff;fill-opacity:0.0862745;"/></g><g><path d="M1142.38,468.447c-4.548,-1.329 -8.373,-4.427 -10.618,-8.599l-0.153,-0.283c-2.147,-4.072 -2.622,-8.82 -1.325,-13.236l19.097,-64.016c1.329,-4.549 4.426,-8.374 8.599,-10.618c8.588,-4.654 19.323,-1.464 23.976,7.124c0.006,0.011 0.012,0.022 0.017,0.034c2.262,4.163 2.758,9.06 1.377,13.593l-19.097,64.016c-1.328,4.549 -4.426,8.374 -8.599,10.618c-4.076,2.171 -8.841,2.662 -13.274,1.367Z" style="fill:#0a050b;fill-opacity:0.0862745;"/><path d="M1138.62,456.224c2.736,4.865 8.898,6.591 13.763,3.855c2.235,-1.257 3.909,-3.317 4.682,-5.762l19.097,-64.016c1.508,-5.374 -1.626,-10.953 -7,-12.461c-2.469,-0.692 -5.11,-0.421 -7.386,0.761c-2.335,1.274 -4.073,3.417 -4.838,5.966l-19.097,64.016c-0.727,2.472 -0.483,5.13 0.684,7.428l0.095,0.213Z" style="fill:#fff;fill-opacity:0.0862745;"/></g><g><path d="M904.898,458.507c-4.548,-1.329 -8.373,-4.427 -10.618,-8.599l-0.153,-0.283c-2.147,-4.072 -2.622,-8.82 -1.325,-13.236l19.097,-64.016c1.329,-4.549 4.426,-8.374 8.599,-10.618c8.589,-4.654 19.323,-1.464 23.976,7.124c0.006,0.011 0.012,0.022 0.018,0.034c2.261,4.163 2.757,9.06 1.376,13.593l-19.097,64.016c-1.328,4.549 -4.426,8.374 -8.599,10.618c-4.076,2.171 -8.84,2.662 -13.274,1.367Z" style="fill:#0a050b;fill-opacity:0.0862745;"/><path d="M901.135,446.284c2.736,4.865 8.898,6.591 13.763,3.855c2.235,-1.257 3.909,-3.317 4.682,-5.762l19.097,-64.016c1.508,-5.374 -1.626,-10.953 -7,-12.461c-2.469,-0.693 -5.11,-0.421 -7.386,0.761c-2.335,1.274 -4.073,3.417 -4.838,5.965l-19.097,64.016c-0.727,2.473 -0.483,5.13 0.685,7.429l0.094,0.213Z" style="fill:#fff;fill-opacity:0.0862745;"/></g><g><path d="M450.119,859.232c-4.093,2.386 -8.973,3.03 -13.546,1.788l-0.31,-0.084c-4.432,-1.243 -8.205,-4.165 -10.516,-8.145l-33.314,-57.905c-2.387,-4.093 -3.031,-8.973 -1.789,-13.545c2.533,-9.435 12.233,-15.03 21.666,-12.497c0.013,0.003 0.025,0.007 0.037,0.011c4.577,1.223 8.472,4.233 10.811,8.354l33.314,57.905c2.387,4.093 3.031,8.973 1.789,13.545c-1.229,4.452 -4.152,8.246 -8.142,10.573Z" style="fill:#0a050b;fill-opacity:0.0862745;"/><path d="M438.661,853.552c5.412,1.362 10.905,-1.922 12.267,-7.334c0.625,-2.487 0.282,-5.119 -0.96,-7.363l-33.313,-57.904c-2.863,-4.792 -9.068,-6.356 -13.86,-3.494c-2.201,1.315 -3.821,3.418 -4.529,5.883c-0.682,2.571 -0.323,5.307 1,7.615l33.314,57.905c1.293,2.229 3.39,3.88 5.861,4.614l0.22,0.078Z" style="fill:#fff;fill-opacity:0.0862745;"/></g><g><path d="M445.298,229.717c-4.093,2.386 -8.973,3.03 -13.546,1.788l-0.31,-0.083c-4.432,-1.244 -8.205,-4.166 -10.517,-8.146l-33.313,-57.904c-2.387,-4.094 -3.032,-8.974 -1.789,-13.546c2.532,-9.434 12.233,-15.029 21.666,-12.496c0.012,0.003 0.024,0.006 0.037,0.01c4.577,1.224 8.472,4.233 10.811,8.355l33.314,57.904c2.387,4.093 3.031,8.973 1.789,13.546c-1.23,4.451 -4.152,8.246 -8.142,10.572Z" style="fill:#0a050b;fill-opacity:0.0862745;"/><path d="M433.839,224.037c5.413,1.362 10.906,-1.922 12.267,-7.334c0.626,-2.487 0.283,-5.119 -0.959,-7.362l-33.314,-57.905c-2.862,-4.792 -9.067,-6.356 -13.859,-3.493c-2.201,1.314 -3.821,3.417 -4.53,5.882c-0.682,2.571 -0.322,5.307 1,7.616l33.314,57.904c1.294,2.229 3.391,3.88 5.862,4.615l0.219,0.077Z" style="fill:#fff;fill-opacity:0.0862745;"/></g><g><path d="M1538.67,858.57c-4.093,2.386 -8.973,3.03 -13.546,1.788l-0.31,-0.084c-4.432,-1.243 -8.205,-4.165 -10.516,-8.145l-33.314,-57.905c-2.387,-4.093 -3.031,-8.973 -1.789,-13.545c2.533,-9.435 12.233,-15.03 21.667,-12.497c0.012,0.004 0.024,0.007 0.036,0.011c4.577,1.223 8.472,4.233 10.811,8.354l33.314,57.905c2.387,4.093 3.031,8.973 1.789,13.545c-1.229,4.452 -4.152,8.246 -8.142,10.573Z" style="fill:#0a050b;fill-opacity:0.0862745;"/><path d="M1527.22,852.89c5.412,1.362 10.905,-1.922 12.267,-7.334c0.625,-2.487 0.282,-5.119 -0.96,-7.362l-33.313,-57.905c-2.863,-4.792 -9.068,-6.356 -13.86,-3.494c-2.201,1.315 -3.821,3.418 -4.529,5.883c-0.682,2.571 -0.323,5.307 1,7.615l33.314,57.905c1.293,2.229 3.39,3.88 5.861,4.614l0.22,0.078Z" style="fill:#fff;fill-opacity:0.0862745;"/></g><g><path d="M1463.95,245.317c-4.093,2.386 -8.973,3.03 -13.546,1.788l-0.31,-0.083c-4.432,-1.244 -8.205,-4.166 -10.516,-8.146l-33.314,-57.904c-2.387,-4.094 -3.031,-8.974 -1.789,-13.546c2.532,-9.434 12.233,-15.029 21.666,-12.496c0.012,0.003 0.025,0.006 0.037,0.01c4.577,1.224 8.472,4.233 10.811,8.354l33.314,57.905c2.387,4.093 3.031,8.973 1.789,13.546c-1.23,4.451 -4.152,8.246 -8.142,10.572Z" style="fill:#0a050b;fill-opacity:0.0862745;"/><path d="M1452.49,239.637c5.413,1.362 10.906,-1.922 12.268,-7.334c0.625,-2.487 0.282,-5.119 -0.96,-7.362l-33.314,-57.905c-2.862,-4.792 -9.067,-6.356 -13.859,-3.493c-2.201,1.314 -3.821,3.417 -4.53,5.882c-0.682,2.571 -0.322,5.307 1.001,7.616l33.313,57.904c1.294,2.229 3.391,3.88 5.862,4.615l0.219,0.077Z" style="fill:#fff;fill-opacity:0.0862745;"/></g><g><path d="M729.984,696.114c-4.093,2.386 -8.973,3.03 -13.545,1.788l-0.311,-0.083c-4.432,-1.244 -8.204,-4.166 -10.516,-8.146l-33.314,-57.904c-2.386,-4.094 -3.031,-8.974 -1.788,-13.546c2.532,-9.434 12.233,-15.029 21.666,-12.497c0.012,0.004 0.024,0.007 0.036,0.011c4.578,1.224 8.473,4.233 10.812,8.354l33.314,57.905c2.387,4.093 3.031,8.973 1.788,13.546c-1.229,4.451 -4.151,8.246 -8.142,10.572Z" style="fill:#0a050b;fill-opacity:0.0862745;"/><path d="M718.526,690.434c5.412,1.362 10.905,-1.922 12.267,-7.334c0.626,-2.487 0.283,-5.119 -0.959,-7.362l-33.314,-57.905c-2.863,-4.792 -9.068,-6.356 -13.859,-3.494c-2.202,1.315 -3.822,3.418 -4.53,5.883c-0.682,2.571 -0.323,5.307 1,7.615l33.314,57.905c1.293,2.229 3.39,3.88 5.861,4.615l0.22,0.077Z" style="fill:#fff;fill-opacity:0.0862745;"/></g><g><path d="M725.163,66.599c-4.093,2.387 -8.973,3.03 -13.545,1.789l-0.311,-0.084c-4.432,-1.243 -8.205,-4.166 -10.516,-8.146l-33.314,-57.904c-2.387,-4.094 -3.031,-8.974 -1.788,-13.546c2.532,-9.434 12.233,-15.029 21.666,-12.496c0.012,0.003 0.024,0.006 0.036,0.01c4.578,1.224 8.473,4.233 10.812,8.355l33.314,57.904c2.386,4.093 3.03,8.973 1.788,13.546c-1.229,4.451 -4.152,8.246 -8.142,10.572Z" style="fill:#0a050b;fill-opacity:0.0862745;"/><path d="M713.705,60.92c5.412,1.362 10.905,-1.922 12.267,-7.335c0.625,-2.487 0.283,-5.119 -0.959,-7.362l-33.314,-57.904c-2.863,-4.793 -9.068,-6.357 -13.86,-3.494c-2.201,1.314 -3.821,3.417 -4.529,5.882c-0.682,2.572 -0.323,5.307 1,7.616l33.314,57.904c1.293,2.229 3.39,3.88 5.861,4.615l0.22,0.078Z" style="fill:#fff;fill-opacity:0.0862745;"/></g><g><path d="M133.414,724.259c-6.241,-6.202 -6.272,-16.288 -0.07,-22.529c0.024,-0.023 0.047,-0.046 0.07,-0.07l9.968,-9.968l-9.968,-9.967c-6.241,-6.203 -6.272,-16.289 -0.07,-22.53c0.024,-0.023 0.047,-0.046 0.07,-0.069c6.202,-6.241 16.289,-6.272 22.529,-0.07c0.023,0.023 0.047,0.047 0.069,0.07l9.968,9.968l9.968,-9.968c6.202,-6.241 16.289,-6.272 22.529,-0.07c0.024,0.023 0.047,0.047 0.07,0.07c6.241,6.201 6.272,16.288 0.07,22.529c-0.023,0.023 -0.047,0.046 -0.07,0.07l-9.968,9.967l9.922,9.923c6.254,6.19 6.305,16.276 0.116,22.529c-0.038,0.038 -0.077,0.077 -0.116,0.115c-6.214,6.228 -16.301,6.239 -22.528,0.024c-0.009,-0.008 -0.017,-0.016 -0.025,-0.024l-9.968,-9.968l-9.968,9.968c-6.201,6.24 -16.288,6.272 -22.528,0.069c-0.024,-0.022 -0.047,-0.046 -0.07,-0.069Z" style="fill:#808080;fill-opacity:0.0862745;"/><path d="M135.689,712.88c0.083,5.027 4.225,9.035 9.252,8.953c2.309,-0.038 4.518,-0.952 6.178,-2.558l12.426,-12.426c1.351,-1.351 3.541,-1.352 4.893,-0.001c0,0.001 0,0.001 0,0.001l12.426,12.426c3.543,3.484 9.225,3.484 12.767,0c3.47,-3.54 3.47,-9.205 0,-12.744l-12.426,-12.426c-1.35,-1.351 -1.351,-3.541 0,-4.892c0,-0.001 0,-0.001 0,-0.001l12.426,-12.426c3.5,-3.546 3.5,-9.245 0,-12.79c-3.545,-3.5 -9.244,-3.5 -12.79,0l-12.403,12.471c-1.35,1.351 -3.54,1.352 -4.892,0.001c0,0 0,-0.001 -0.001,-0.001l-12.426,-12.425c-3.545,-3.5 -9.244,-3.5 -12.79,0c-3.499,3.545 -3.499,9.244 0,12.79l12.381,12.357c1.351,1.351 1.352,3.541 0.001,4.892c0,0 -0.001,0 -0.001,0.001l-12.403,12.426c-1.674,1.699 -2.614,3.987 -2.618,6.372Z" style="fill:#808080;fill-opacity:0.0862745;"/></g><g><path d="M128.592,94.744c-6.24,-6.202 -6.271,-16.288 -0.069,-22.529c0.023,-0.023 0.047,-0.046 0.069,-0.069l9.968,-9.968l-9.968,-9.968c-6.24,-6.202 -6.271,-16.289 -0.069,-22.529c0.023,-0.024 0.047,-0.047 0.069,-0.07c6.203,-6.241 16.289,-6.272 22.53,-0.07c0.023,0.024 0.046,0.047 0.069,0.07l9.968,9.968l9.968,-9.968c6.202,-6.241 16.289,-6.272 22.529,-0.07c0.024,0.024 0.047,0.047 0.07,0.07c6.24,6.202 6.272,16.289 0.07,22.529c-0.024,0.024 -0.047,0.047 -0.07,0.07l-9.968,9.968l9.922,9.922c6.253,6.19 6.305,16.276 0.116,22.529c-0.038,0.039 -0.077,0.077 -0.116,0.115c-6.214,6.228 -16.301,6.239 -22.529,0.024c-0.008,-0.008 -0.016,-0.016 -0.024,-0.024l-9.968,-9.968l-9.968,9.968c-6.201,6.241 -16.288,6.272 -22.529,0.07c-0.023,-0.023 -0.046,-0.046 -0.07,-0.07Z" style="fill:#808080;fill-opacity:0.0862745;"/><path d="M130.868,83.365c0.083,5.027 4.225,9.035 9.251,8.953c2.31,-0.038 4.519,-0.952 6.179,-2.558l12.426,-12.425c1.351,-1.352 3.541,-1.352 4.892,-0.002c0,0.001 0.001,0.001 0.001,0.002l12.426,12.425c3.543,3.485 9.225,3.485 12.767,0c3.47,-3.54 3.47,-9.205 0,-12.744l-12.426,-12.426c-1.351,-1.351 -1.351,-3.541 0,-4.892c0,0 0,-0.001 0,-0.001l12.426,-12.426c3.5,-3.545 3.5,-9.244 0,-12.79c-3.545,-3.499 -9.244,-3.499 -12.79,0l-12.403,12.472c-1.35,1.35 -3.541,1.351 -4.892,0c0,0 0,0 -0.001,0l-12.426,-12.425c-3.545,-3.501 -9.244,-3.501 -12.79,0c-3.499,3.544 -3.499,9.243 0,12.789l12.38,12.357c1.352,1.351 1.352,3.542 0.002,4.892c0,0.001 -0.001,0.001 -0.002,0.001l-12.403,12.426c-1.673,1.7 -2.613,3.987 -2.617,6.372Z" style="fill:#808080;fill-opacity:0.0862745;"/></g><g><path d="M1221.97,723.597c-6.241,-6.202 -6.272,-16.288 -0.07,-22.529c0.024,-0.023 0.047,-0.046 0.07,-0.069l9.968,-9.968l-9.968,-9.968c-6.241,-6.203 -6.272,-16.289 -0.07,-22.53c0.024,-0.023 0.047,-0.046 0.07,-0.069c6.202,-6.241 16.289,-6.272 22.529,-0.07c0.023,0.023 0.047,0.047 0.069,0.07l9.968,9.968l9.968,-9.968c6.202,-6.241 16.289,-6.272 22.529,-0.07c0.024,0.023 0.047,0.047 0.07,0.07c6.241,6.201 6.272,16.288 0.07,22.529c-0.023,0.023 -0.047,0.046 -0.07,0.07l-9.968,9.968l9.922,9.922c6.254,6.19 6.305,16.276 0.116,22.529c-0.038,0.038 -0.077,0.077 -0.116,0.115c-6.214,6.228 -16.301,6.239 -22.528,0.024c-0.009,-0.008 -0.017,-0.016 -0.025,-0.024l-9.968,-9.968l-9.968,9.968c-6.201,6.24 -16.288,6.272 -22.528,0.07c-0.024,-0.023 -0.047,-0.047 -0.07,-0.07Z" style="fill:#808080;fill-opacity:0.0862745;"/><path d="M1224.24,712.218c0.083,5.027 4.225,9.035 9.252,8.953c2.31,-0.038 4.518,-0.952 6.178,-2.558l12.426,-12.426c1.351,-1.351 3.541,-1.352 4.893,-0.001c0,0.001 0,0.001 0,0.001l12.426,12.426c3.543,3.484 9.225,3.484 12.767,0c3.47,-3.54 3.47,-9.205 0,-12.744l-12.426,-12.426c-1.35,-1.351 -1.351,-3.541 0,-4.892c0,-0.001 0,-0.001 0,-0.001l12.426,-12.426c3.5,-3.546 3.5,-9.245 0,-12.79c-3.545,-3.499 -9.244,-3.499 -12.79,0l-12.403,12.471c-1.35,1.351 -3.54,1.352 -4.892,0.001c0,0 0,-0.001 -0.001,-0.001l-12.426,-12.425c-3.545,-3.5 -9.244,-3.5 -12.79,0c-3.499,3.545 -3.499,9.244 0,12.79l12.381,12.357c1.351,1.351 1.352,3.541 0.001,4.892c0,0.001 -0.001,0.001 -0.001,0.001l-12.403,12.426c-1.674,1.699 -2.614,3.987 -2.618,6.372Z" style="fill:#808080;fill-opacity:0.0862745;"/></g><g><path d="M1147.25,110.344c-6.241,-6.202 -6.272,-16.288 -0.07,-22.529c0.023,-0.023 0.047,-0.046 0.07,-0.069l9.968,-9.968l-9.968,-9.968c-6.241,-6.202 -6.272,-16.289 -0.07,-22.529c0.023,-0.024 0.047,-0.047 0.07,-0.07c6.202,-6.241 16.289,-6.272 22.529,-0.07c0.023,0.024 0.046,0.047 0.069,0.07l9.968,9.968l9.968,-9.968c6.202,-6.241 16.289,-6.272 22.529,-0.07c0.024,0.024 0.047,0.047 0.07,0.07c6.241,6.202 6.272,16.289 0.07,22.529c-0.024,0.024 -0.047,0.046 -0.07,0.07l-9.968,9.968l9.922,9.922c6.254,6.19 6.305,16.276 0.116,22.529c-0.038,0.039 -0.077,0.077 -0.116,0.115c-6.214,6.228 -16.301,6.239 -22.528,0.024c-0.009,-0.008 -0.017,-0.016 -0.025,-0.024l-9.968,-9.968l-9.968,9.968c-6.201,6.241 -16.288,6.272 -22.528,0.07c-0.024,-0.023 -0.047,-0.046 -0.07,-0.07Z" style="fill:#808080;fill-opacity:0.0862745;"/><path d="M1149.52,98.965c0.083,5.027 4.225,9.035 9.251,8.953c2.31,-0.038 4.519,-0.952 6.179,-2.558l12.426,-12.425c1.351,-1.352 3.541,-1.352 4.892,-0.002c0,0.001 0.001,0.001 0.001,0.002l12.426,12.425c3.543,3.485 9.225,3.485 12.767,0c3.47,-3.54 3.47,-9.205 0,-12.744l-12.426,-12.426c-1.35,-1.351 -1.351,-3.541 0,-4.892c0,0 0,-0.001 0,-0.001l12.426,-12.426c3.5,-3.545 3.5,-9.244 0,-12.79c-3.545,-3.499 -9.244,-3.499 -12.79,0l-12.403,12.472c-1.35,1.35 -3.541,1.351 -4.892,0c0,0 0,0 -0.001,0l-12.426,-12.426c-3.545,-3.5 -9.244,-3.5 -12.79,0c-3.499,3.545 -3.499,9.244 0,12.79l12.381,12.357c1.351,1.351 1.351,3.542 0.001,4.892c0,0.001 -0.001,0.001 -0.001,0.001l-12.403,12.426c-1.674,1.7 -2.614,3.987 -2.618,6.372Z" style="fill:#808080;fill-opacity:0.0862745;"/></g><g><path d="M440.724,440.44c-6.24,-6.202 -6.271,-16.288 -0.069,-22.529c0.023,-0.023 0.046,-0.046 0.069,-0.069l9.968,-9.968l-9.968,-9.968c-6.24,-6.202 -6.271,-16.289 -0.069,-22.53c0.023,-0.023 0.046,-0.046 0.069,-0.069c6.202,-6.241 16.289,-6.272 22.529,-0.07c0.024,0.023 0.047,0.047 0.07,0.07l9.968,9.968l9.968,-9.968c6.202,-6.241 16.289,-6.272 22.529,-0.07c0.023,0.023 0.047,0.047 0.069,0.07c6.241,6.202 6.272,16.288 0.07,22.529c-0.023,0.024 -0.046,0.046 -0.07,0.07l-9.968,9.968l9.923,9.922c6.253,6.19 6.305,16.276 0.115,22.529c-0.038,0.038 -0.076,0.077 -0.115,0.115c-6.215,6.228 -16.301,6.239 -22.529,0.024c-0.008,-0.008 -0.016,-0.016 -0.024,-0.024l-9.968,-9.968l-9.968,9.968c-6.202,6.24 -16.289,6.272 -22.529,0.07c-0.023,-0.023 -0.046,-0.046 -0.07,-0.07Z" style="fill:#808080;fill-opacity:0.0862745;"/><path d="M443,429.061c0.082,5.027 4.224,9.035 9.251,8.953c2.31,-0.038 4.519,-0.952 6.179,-2.558l12.426,-12.426c1.35,-1.351 3.541,-1.351 4.892,-0.001c0,0.001 0.001,0.001 0.001,0.001l12.425,12.426c3.543,3.485 9.225,3.485 12.768,0c3.47,-3.54 3.47,-9.205 0,-12.744l-12.426,-12.426c-1.351,-1.351 -1.351,-3.541 -0.001,-4.892c0,0 0.001,-0.001 0.001,-0.001l12.426,-12.426c3.499,-3.545 3.499,-9.245 0,-12.79c-3.545,-3.499 -9.245,-3.499 -12.79,0l-12.403,12.472c-1.35,1.35 -3.541,1.351 -4.892,0c0,0 -0.001,0 -0.001,0l-12.426,-12.426c-3.545,-3.5 -9.244,-3.5 -12.79,0c-3.499,3.545 -3.499,9.244 0,12.79l12.38,12.357c1.351,1.351 1.352,3.541 0.001,4.892c0,0.001 0,0.001 -0.001,0.001l-12.403,12.426c-1.673,1.7 -2.613,3.987 -2.617,6.372Z" style="fill:#808080;fill-opacity:0.0862745;"/></g><g><path d="M1529.28,439.778c-6.24,-6.202 -6.271,-16.288 -0.069,-22.529c0.023,-0.023 0.046,-0.046 0.069,-0.069l9.968,-9.968l-9.968,-9.968c-6.24,-6.202 -6.271,-16.289 -0.069,-22.529c0.023,-0.024 0.046,-0.047 0.069,-0.07c6.202,-6.241 16.289,-6.272 22.529,-0.07c0.024,0.023 0.047,0.047 0.07,0.07l9.968,9.968l9.968,-9.968c6.202,-6.241 16.289,-6.272 22.529,-0.07c0.023,0.023 0.047,0.047 0.069,0.07c6.241,6.202 6.272,16.289 0.07,22.529c-0.023,0.024 -0.046,0.046 -0.07,0.07l-9.968,9.968l9.923,9.922c6.253,6.19 6.305,16.276 0.115,22.529c-0.038,0.039 -0.076,0.077 -0.115,0.115c-6.215,6.228 -16.301,6.239 -22.529,0.024c-0.008,-0.008 -0.016,-0.016 -0.024,-0.024l-9.968,-9.968l-9.968,9.968c-6.202,6.241 -16.289,6.272 -22.529,0.07c-0.023,-0.023 -0.046,-0.046 -0.07,-0.07Z" style="fill:#808080;fill-opacity:0.0862745;"/><path d="M1531.56,428.399c0.083,5.027 4.224,9.035 9.251,8.953c2.31,-0.038 4.519,-0.952 6.179,-2.558l12.426,-12.426c1.35,-1.351 3.541,-1.351 4.892,-0.001c0,0.001 0.001,0.001 0.001,0.001l12.425,12.426c3.543,3.485 9.225,3.485 12.768,0c3.47,-3.54 3.47,-9.205 0,-12.744l-12.426,-12.426c-1.351,-1.351 -1.351,-3.541 -0.001,-4.892c0,0 0.001,-0.001 0.001,-0.001l12.426,-12.426c3.499,-3.545 3.499,-9.245 0,-12.79c-3.545,-3.499 -9.245,-3.499 -12.79,0l-12.403,12.472c-1.35,1.35 -3.541,1.351 -4.892,0c0,0 -0.001,0 -0.001,0l-12.426,-12.426c-3.545,-3.5 -9.244,-3.5 -12.79,0c-3.499,3.545 -3.499,9.244 0,12.79l12.38,12.357c1.351,1.351 1.352,3.541 0.001,4.892c0,0.001 0,0.001 -0.001,0.001l-12.403,12.426c-1.673,1.7 -2.613,3.987 -2.617,6.372Z" style="fill:#808080;fill-opacity:0.0862745;"/></g><g><path d="M889.273,726.895c-6.241,-6.202 -6.272,-16.288 -0.07,-22.529c0.024,-0.023 0.047,-0.046 0.07,-0.069l9.968,-9.968l-9.968,-9.968c-6.241,-6.202 -6.272,-16.289 -0.07,-22.53c0.024,-0.023 0.047,-0.046 0.07,-0.069c6.202,-6.241 16.289,-6.272 22.529,-0.07c0.023,0.023 0.047,0.047 0.069,0.07l9.968,9.968l9.968,-9.968c6.202,-6.241 16.289,-6.272 22.529,-0.07c0.024,0.023 0.047,0.047 0.07,0.07c6.241,6.202 6.272,16.288 0.07,22.529c-0.023,0.024 -0.047,0.046 -0.07,0.07l-9.968,9.968l9.922,9.922c6.254,6.19 6.305,16.276 0.116,22.529c-0.038,0.038 -0.077,0.077 -0.116,0.115c-6.214,6.228 -16.301,6.239 -22.528,0.024c-0.009,-0.008 -0.017,-0.016 -0.025,-0.024l-9.968,-9.968l-9.968,9.968c-6.201,6.24 -16.288,6.272 -22.528,0.07c-0.024,-0.023 -0.047,-0.046 -0.07,-0.07Z" style="fill:#808080;fill-opacity:0.0862745;"/><path d="M891.548,715.516c0.083,5.027 4.225,9.035 9.252,8.953c2.31,-0.038 4.518,-0.952 6.178,-2.558l12.426,-12.426c1.351,-1.351 3.541,-1.351 4.893,-0.001c0,0.001 0,0.001 0,0.001l12.426,12.426c3.543,3.484 9.225,3.484 12.767,0c3.47,-3.54 3.47,-9.205 0,-12.744l-12.426,-12.426c-1.35,-1.351 -1.351,-3.541 0,-4.892c0,0 0,-0.001 0,-0.001l12.426,-12.426c3.5,-3.546 3.5,-9.245 0,-12.79c-3.545,-3.499 -9.244,-3.499 -12.79,0l-12.403,12.472c-1.35,1.35 -3.54,1.351 -4.892,0c0,0 0,0 -0.001,0l-12.426,-12.426c-3.545,-3.5 -9.244,-3.5 -12.79,0c-3.499,3.545 -3.499,9.244 0,12.79l12.381,12.357c1.351,1.351 1.352,3.541 0.001,4.892c0,0.001 -0.001,0.001 -0.001,0.001l-12.403,12.426c-1.674,1.699 -2.614,3.987 -2.618,6.372Z" style="fill:#808080;fill-opacity:0.0862745;"/></g><g><path d="M884.451,97.381c-6.24,-6.203 -6.271,-16.289 -0.069,-22.53c0.023,-0.023 0.047,-0.046 0.069,-0.069l9.968,-9.968l-9.968,-9.968c-6.24,-6.202 -6.271,-16.289 -0.069,-22.529c0.023,-0.024 0.047,-0.047 0.069,-0.07c6.203,-6.24 16.289,-6.272 22.53,-0.07c0.023,0.024 0.046,0.047 0.069,0.07l9.968,9.968l9.968,-9.968c6.202,-6.24 16.289,-6.272 22.529,-0.07c0.024,0.024 0.047,0.047 0.07,0.07c6.24,6.202 6.272,16.289 0.07,22.53c-0.024,0.023 -0.047,0.046 -0.07,0.069l-9.968,9.968l9.922,9.922c6.253,6.19 6.305,16.276 0.116,22.529c-0.038,0.039 -0.077,0.077 -0.116,0.116c-6.214,6.227 -16.301,6.238 -22.528,0.023c-0.009,-0.008 -0.017,-0.015 -0.025,-0.023l-9.968,-9.968l-9.968,9.968c-6.201,6.24 -16.288,6.271 -22.529,0.069c-0.023,-0.023 -0.046,-0.046 -0.07,-0.069Z" style="fill:#808080;fill-opacity:0.0862745;"/><path d="M886.727,86.002c0.083,5.026 4.225,9.034 9.251,8.953c2.31,-0.039 4.519,-0.953 6.179,-2.558l12.426,-12.426c1.351,-1.352 3.541,-1.352 4.892,-0.001c0,0 0.001,0 0.001,0.001l12.426,12.426c3.543,3.484 9.225,3.484 12.767,0c3.47,-3.54 3.47,-9.205 0,-12.745l-12.426,-12.426c-1.351,-1.35 -1.351,-3.541 0,-4.892c0,0 0,-0.001 0,-0.001l12.426,-12.425c3.5,-3.546 3.5,-9.245 0,-12.79c-3.545,-3.5 -9.244,-3.5 -12.79,0l-12.403,12.471c-1.35,1.351 -3.541,1.351 -4.892,0c0,0 0,0 -0.001,0l-12.426,-12.425c-3.545,-3.501 -9.244,-3.501 -12.79,0c-3.499,3.544 -3.499,9.243 0,12.789l12.381,12.358c1.351,1.35 1.351,3.541 0.001,4.891c0,0.001 -0.001,0.001 -0.001,0.002l-12.404,12.425c-1.673,1.7 -2.613,3.988 -2.617,6.373Z" style="fill:#808080;fill-opacity:0.0862745;"/></g><g><path d="M582.157,846.12c-6.24,-6.202 -6.272,-16.288 -0.07,-22.529c0.024,-0.023 0.047,-0.046 0.07,-0.069l9.968,-9.968l-9.968,-9.968c-6.24,-6.202 -6.272,-16.289 -0.07,-22.529c0.024,-0.024 0.047,-0.047 0.07,-0.07c6.202,-6.241 16.289,-6.272 22.529,-0.07c0.023,0.023 0.047,0.047 0.069,0.07l9.968,9.968l9.968,-9.968c6.202,-6.241 16.289,-6.272 22.53,-0.07c0.023,0.023 0.046,0.047 0.069,0.07c6.241,6.202 6.272,16.289 0.07,22.529c-0.023,0.024 -0.047,0.046 -0.07,0.07l-9.968,9.968l9.922,9.922c6.254,6.19 6.306,16.276 0.116,22.529c-0.038,0.039 -0.077,0.077 -0.116,0.115c-6.214,6.228 -16.3,6.239 -22.528,0.024c-0.009,-0.008 -0.017,-0.016 -0.025,-0.024l-9.968,-9.968l-9.968,9.968c-6.201,6.241 -16.288,6.272 -22.528,0.07c-0.024,-0.023 -0.047,-0.046 -0.07,-0.07Z" style="fill:#808080;fill-opacity:0.0862745;"/><path d="M584.433,834.741c0.082,5.027 4.224,9.035 9.251,8.953c2.31,-0.038 4.518,-0.952 6.178,-2.558l12.426,-12.425c1.351,-1.352 3.541,-1.352 4.893,-0.002c0,0.001 0,0.001 0,0.002l12.426,12.425c3.543,3.485 9.225,3.485 12.767,0c3.47,-3.54 3.47,-9.205 0,-12.744l-12.426,-12.426c-1.35,-1.351 -1.351,-3.541 0,-4.892c0,0 0,-0.001 0,-0.001l12.426,-12.426c3.5,-3.545 3.5,-9.245 0,-12.79c-3.545,-3.499 -9.244,-3.499 -12.79,0l-12.403,12.472c-1.35,1.35 -3.54,1.351 -4.892,0c0,0 0,0 -0.001,0l-12.426,-12.426c-3.545,-3.5 -9.244,-3.5 -12.79,0c-3.499,3.545 -3.499,9.244 0,12.79l12.381,12.357c1.351,1.351 1.352,3.541 0.001,4.892c0,0.001 -0.001,0.001 -0.001,0.001l-12.403,12.426c-1.674,1.7 -2.613,3.987 -2.617,6.372Z" style="fill:#808080;fill-opacity:0.0862745;"/></g><g><path d="M577.336,216.606c-6.241,-6.202 -6.272,-16.289 -0.07,-22.53c0.023,-0.023 0.047,-0.046 0.07,-0.069l9.968,-9.968l-9.968,-9.968c-6.241,-6.202 -6.272,-16.289 -0.07,-22.529c0.023,-0.023 0.047,-0.047 0.07,-0.07c6.202,-6.24 16.289,-6.272 22.529,-0.069c0.023,0.023 0.046,0.046 0.069,0.069l9.968,9.968l9.968,-9.968c6.202,-6.24 16.289,-6.272 22.529,-0.069c0.024,0.023 0.047,0.046 0.07,0.069c6.241,6.202 6.272,16.289 0.07,22.53c-0.024,0.023 -0.047,0.046 -0.07,0.069l-9.968,9.968l9.922,9.923c6.254,6.189 6.305,16.275 0.116,22.528c-0.038,0.039 -0.077,0.078 -0.116,0.116c-6.214,6.227 -16.301,6.238 -22.528,0.024c-0.009,-0.008 -0.017,-0.016 -0.025,-0.024l-9.968,-9.968l-9.968,9.968c-6.201,6.24 -16.288,6.271 -22.528,0.069c-0.024,-0.023 -0.047,-0.046 -0.07,-0.069Z" style="fill:#808080;fill-opacity:0.0862745;"/><path d="M579.611,205.227c0.083,5.026 4.225,9.035 9.251,8.953c2.31,-0.038 4.519,-0.953 6.179,-2.558l12.426,-12.426c1.351,-1.351 3.541,-1.352 4.892,-0.001c0,0 0.001,0 0.001,0.001l12.426,12.426c3.543,3.484 9.225,3.484 12.767,0c3.47,-3.54 3.47,-9.205 0,-12.745l-12.426,-12.426c-1.35,-1.35 -1.351,-3.541 0,-4.891c0,-0.001 0,-0.002 0,-0.002l12.426,-12.425c3.5,-3.546 3.5,-9.245 0,-12.79c-3.545,-3.5 -9.244,-3.5 -12.79,0l-12.403,12.471c-1.35,1.351 -3.541,1.351 -4.892,0.001c0,0 0,-0.001 -0.001,-0.001l-12.426,-12.425c-3.545,-3.5 -9.244,-3.5 -12.79,0c-3.499,3.544 -3.499,9.243 0,12.789l12.381,12.358c1.351,1.35 1.351,3.541 0.001,4.892c0,0 -0.001,0 -0.001,0.001l-12.403,12.426c-1.674,1.699 -2.614,3.987 -2.618,6.372Z" style="fill:#808080;fill-opacity:0.0862745;"/></g><g><path d="M1595.99,232.206c-6.241,-6.202 -6.272,-16.289 -0.07,-22.53c0.024,-0.023 0.047,-0.046 0.07,-0.069l9.968,-9.968l-9.968,-9.968c-6.241,-6.202 -6.272,-16.289 -0.07,-22.529c0.024,-0.023 0.047,-0.047 0.07,-0.07c6.202,-6.24 16.289,-6.272 22.529,-0.07c0.023,0.024 0.047,0.047 0.069,0.07l9.968,9.968l9.968,-9.968c6.202,-6.24 16.289,-6.272 22.529,-0.07c0.024,0.024 0.047,0.047 0.07,0.07c6.241,6.202 6.272,16.289 0.07,22.53c-0.023,0.023 -0.047,0.046 -0.07,0.069l-9.968,9.968l9.922,9.923c6.254,6.189 6.305,16.275 0.116,22.528c-0.038,0.039 -0.077,0.078 -0.116,0.116c-6.214,6.227 -16.301,6.238 -22.528,0.024c-0.009,-0.008 -0.017,-0.016 -0.025,-0.024l-9.968,-9.968l-9.968,9.968c-6.201,6.24 -16.288,6.271 -22.528,0.069c-0.024,-0.023 -0.047,-0.046 -0.07,-0.069Z" style="fill:#808080;fill-opacity:0.0862745;"/><path d="M1598.26,220.827c0.083,5.026 4.225,9.035 9.252,8.953c2.309,-0.038 4.518,-0.953 6.178,-2.558l12.426,-12.426c1.351,-1.351 3.541,-1.352 4.893,-0.001c0,0 0,0 0,0.001l12.426,12.426c3.543,3.484 9.225,3.484 12.767,0c3.47,-3.54 3.47,-9.205 0,-12.745l-12.426,-12.426c-1.35,-1.35 -1.351,-3.541 0,-4.891c0,-0.001 0,-0.002 0,-0.002l12.426,-12.425c3.5,-3.546 3.5,-9.245 0,-12.79c-3.545,-3.5 -9.244,-3.5 -12.79,0l-12.403,12.471c-1.35,1.351 -3.54,1.351 -4.892,0.001c0,0 0,-0.001 -0.001,-0.001l-12.426,-12.425c-3.545,-3.5 -9.244,-3.5 -12.79,0c-3.499,3.544 -3.499,9.243 0,12.789l12.381,12.358c1.351,1.35 1.352,3.541 0.001,4.891c0,0.001 -0.001,0.001 -0.001,0.002l-12.403,12.425c-1.674,1.7 -2.614,3.988 -2.618,6.373Z" style="fill:#808080;fill-opacity:0.0862745;"/></g><g><path d="M261.87,502.559c-3.142,-0.005 -6.154,-1.259 -8.371,-3.486c-2.224,-2.226 -3.471,-5.245 -3.466,-8.391c0.005,-3.143 1.259,-6.154 3.486,-8.371c4.607,-4.623 12.088,-4.637 16.711,-0.031c0.01,0.01 0.02,0.021 0.031,0.031l0.182,0.203c2.099,2.179 3.281,5.081 3.304,8.107c-0.005,3.142 -1.259,6.154 -3.486,8.371c-2.227,2.269 -5.273,3.547 -8.452,3.547l0.061,0.02Z" style="fill:#0a050b;fill-opacity:0.0862745;"/><path d="M257.816,494.736c2.194,2.238 5.787,2.275 8.026,0.081c0.027,-0.027 0.054,-0.054 0.081,-0.081c1.077,-1.074 1.676,-2.534 1.662,-4.054c0.004,-1.447 -0.547,-2.839 -1.54,-3.892l-0.142,-0.121c-2.193,-2.239 -5.787,-2.276 -8.025,-0.082c-0.027,0.027 -0.055,0.054 -0.082,0.082c-1.076,1.073 -1.675,2.533 -1.662,4.053c-0.013,1.52 0.586,2.981 1.662,4.054l0.02,-0.04Z" style="fill:#fff;fill-opacity:0.0862745;"/><path d="M204.694,502.559c-3.143,-0.003 -6.155,-1.257 -8.371,-3.486c-2.229,-2.216 -3.483,-5.228 -3.486,-8.371c0.005,-3.142 1.259,-6.154 3.486,-8.37c4.601,-4.629 12.082,-4.652 16.711,-0.052c0.017,0.017 0.034,0.034 0.051,0.052l0.182,0.202c2.099,2.18 3.281,5.081 3.304,8.107c-0.005,3.142 -1.259,6.154 -3.486,8.371c-2.22,2.252 -5.249,3.522 -8.412,3.527l0.021,0.02Z" style="fill:#0a050b;fill-opacity:0.0862745;"/><path d="M200.64,494.715c2.194,2.239 5.787,2.275 8.026,0.082c0.027,-0.027 0.054,-0.054 0.081,-0.082c1.076,-1.073 1.676,-2.534 1.662,-4.053c0.004,-1.447 -0.548,-2.839 -1.54,-3.892l-0.142,-0.121c-2.177,-2.24 -5.757,-2.289 -7.996,-0.111c-0.038,0.036 -0.075,0.073 -0.111,0.111c-1.076,1.072 -1.675,2.533 -1.662,4.053c-0.006,1.522 0.601,2.983 1.682,4.054l0,-0.041Z" style="fill:#fff;fill-opacity:0.0862745;"/><path d="M233.251,531.704c-7.835,0 -14.187,-6.352 -14.187,-14.187l0,-53.589c-0.114,-7.835 6.145,-14.279 13.98,-14.393c3.885,-0.056 7.623,1.483 10.341,4.259c2.693,2.682 4.198,6.333 4.175,10.134l0,53.548c0.023,3.801 -1.482,7.452 -4.175,10.134c-2.7,2.669 -6.357,4.143 -10.154,4.094l0.02,0Z" style="fill:#0a050b;fill-opacity:0.0862745;"/><path d="M227.556,523.172c3.219,3.112 8.351,3.026 11.464,-0.193c1.43,-1.479 2.244,-3.446 2.278,-5.503l0,-53.588c0,-4.478 -3.63,-8.108 -8.108,-8.108c-4.477,0 -8.107,3.63 -8.107,8.108l0,53.588c0.036,2.151 0.926,4.2 2.473,5.696Z" style="fill:#fff;fill-opacity:0.0862745;"/></g><g><path d="M1350.42,501.897c-3.142,-0.005 -6.154,-1.259 -8.371,-3.486c-2.224,-2.225 -3.471,-5.245 -3.466,-8.391c0.005,-3.143 1.259,-6.154 3.486,-8.371c4.607,-4.623 12.088,-4.637 16.711,-0.031c0.01,0.011 0.021,0.021 0.031,0.031l0.182,0.203c2.099,2.179 3.281,5.081 3.304,8.107c-0.005,3.142 -1.259,6.154 -3.486,8.371c-2.227,2.269 -5.273,3.547 -8.452,3.547l0.061,0.02Z" style="fill:#0a050b;fill-opacity:0.0862745;"/><path d="M1346.37,494.074c2.194,2.238 5.787,2.275 8.026,0.081c0.027,-0.027 0.054,-0.054 0.081,-0.081c1.077,-1.074 1.676,-2.534 1.662,-4.054c0.004,-1.447 -0.547,-2.839 -1.54,-3.891l-0.142,-0.122c-2.193,-2.239 -5.786,-2.276 -8.025,-0.082c-0.027,0.027 -0.055,0.054 -0.082,0.082c-1.076,1.073 -1.675,2.533 -1.662,4.054c-0.013,1.519 0.586,2.98 1.662,4.053l0.02,-0.04Z" style="fill:#fff;fill-opacity:0.0862745;"/><path d="M1293.25,501.897c-3.143,-0.003 -6.155,-1.257 -8.371,-3.486c-2.229,-2.216 -3.483,-5.228 -3.486,-8.371c0.005,-3.142 1.259,-6.154 3.486,-8.37c4.601,-4.629 12.082,-4.652 16.711,-0.052c0.017,0.017 0.034,0.034 0.051,0.052l0.182,0.202c2.099,2.18 3.281,5.081 3.304,8.107c-0.005,3.142 -1.259,6.154 -3.486,8.371c-2.22,2.252 -5.249,3.522 -8.412,3.527l0.021,0.02Z" style="fill:#0a050b;fill-opacity:0.0862745;"/><path d="M1289.19,494.053c2.194,2.239 5.787,2.275 8.026,0.082c0.027,-0.027 0.054,-0.054 0.081,-0.082c1.077,-1.073 1.676,-2.534 1.662,-4.053c0.004,-1.447 -0.547,-2.839 -1.54,-3.892l-0.142,-0.121c-2.177,-2.239 -5.757,-2.289 -7.996,-0.111c-0.038,0.036 -0.075,0.073 -0.111,0.111c-1.076,1.072 -1.675,2.533 -1.662,4.053c-0.006,1.522 0.601,2.983 1.682,4.054l0,-0.041Z" style="fill:#fff;fill-opacity:0.0862745;"/><path d="M1321.81,531.042c-7.835,0 -14.187,-6.352 -14.187,-14.187l0,-53.589c-0.114,-7.835 6.145,-14.279 13.98,-14.393c3.885,-0.056 7.623,1.484 10.341,4.259c2.693,2.682 4.198,6.333 4.176,10.134l0,53.548c0.022,3.801 -1.483,7.452 -4.176,10.134c-2.7,2.669 -6.357,4.143 -10.154,4.094l0.02,0Z" style="fill:#0a050b;fill-opacity:0.0862745;"/><path d="M1316.11,522.51c3.219,3.112 8.351,3.026 11.464,-0.193c1.43,-1.479 2.244,-3.446 2.278,-5.503l0,-53.588c0,-4.478 -3.63,-8.108 -8.107,-8.108c-4.478,0 -8.108,3.63 -8.108,8.108l0,53.588c0.036,2.151 0.926,4.2 2.473,5.696Z" style="fill:#fff;fill-opacity:0.0862745;"/></g><g><path d="M854.5,867.757c-3.142,-0.005 -6.153,-1.259 -8.371,-3.486c-2.224,-2.226 -3.471,-5.245 -3.466,-8.391c0.005,-3.143 1.26,-6.154 3.486,-8.371c4.607,-4.623 12.088,-4.637 16.711,-0.031c0.011,0.01 0.021,0.021 0.031,0.031l0.182,0.203c2.099,2.179 3.282,5.081 3.304,8.107c-0.005,3.142 -1.259,6.154 -3.486,8.371c-2.227,2.269 -5.272,3.547 -8.452,3.547l0.061,0.02Z" style="fill:#0a050b;fill-opacity:0.0862745;"/><path d="M850.446,859.934c2.194,2.238 5.787,2.275 8.026,0.081c0.027,-0.027 0.055,-0.054 0.082,-0.081c1.076,-1.074 1.675,-2.534 1.661,-4.054c0.004,-1.447 -0.547,-2.839 -1.54,-3.892l-0.142,-0.121c-2.193,-2.239 -5.786,-2.276 -8.025,-0.082c-0.027,0.027 -0.055,0.054 -0.082,0.082c-1.076,1.073 -1.675,2.533 -1.662,4.053c-0.013,1.52 0.586,2.981 1.662,4.054l0.02,-0.04Z" style="fill:#fff;fill-opacity:0.0862745;"/><path d="M797.324,867.757c-3.143,-0.003 -6.155,-1.257 -8.371,-3.486c-2.229,-2.216 -3.483,-5.228 -3.486,-8.371c0.005,-3.142 1.259,-6.154 3.486,-8.37c4.601,-4.629 12.082,-4.652 16.711,-0.052c0.017,0.017 0.034,0.034 0.051,0.052l0.182,0.202c2.099,2.18 3.282,5.081 3.304,8.107c-0.005,3.142 -1.259,6.154 -3.486,8.371c-2.22,2.252 -5.249,3.522 -8.411,3.527l0.02,0.02Z" style="fill:#0a050b;fill-opacity:0.0862745;"/><path d="M793.27,859.913c2.194,2.239 5.787,2.275 8.026,0.082c0.027,-0.027 0.055,-0.054 0.081,-0.082c1.077,-1.073 1.676,-2.534 1.662,-4.053c0.004,-1.447 -0.547,-2.839 -1.54,-3.892l-0.142,-0.121c-2.177,-2.239 -5.757,-2.289 -7.996,-0.111c-0.038,0.036 -0.075,0.073 -0.111,0.111c-1.076,1.072 -1.675,2.533 -1.662,4.053c-0.006,1.522 0.601,2.983 1.682,4.054l0,-0.041Z" style="fill:#fff;fill-opacity:0.0862745;"/><path d="M793.27,859.913c2.194,2.239 5.787,2.275 8.026,0.082c0.027,-0.027 0.055,-0.054 0.081,-0.082c1.077,-1.073 1.676,-2.534 1.662,-4.053c0.004,-1.447 -0.547,-2.839 -1.54,-3.892l-0.142,-0.121c-2.177,-2.239 -5.757,-2.289 -7.996,-0.111c-0.038,0.036 -0.075,0.073 -0.111,0.111c-1.076,1.072 -1.675,2.533 -1.662,4.053c-0.006,1.522 0.601,2.983 1.682,4.054l0,-0.041Z" style="fill:#fff;fill-opacity:0.0862745;"/><path d="M825.881,896.902c-7.835,0 -14.187,-6.352 -14.187,-14.187l0,-53.589c-0.114,-7.835 6.145,-14.279 13.98,-14.393c3.885,-0.056 7.623,1.483 10.341,4.259c2.694,2.682 4.198,6.333 4.176,10.134l0,53.548c0.022,3.801 -1.482,7.452 -4.176,10.134c-2.7,2.669 -6.357,4.143 -10.154,4.094l0.02,0Z" style="fill:#0a050b;fill-opacity:0.0862745;"/><path d="M820.186,888.37c3.219,3.112 8.352,3.026 11.464,-0.193c1.43,-1.479 2.244,-3.446 2.278,-5.503l0,-53.588c0,-4.478 -3.63,-8.108 -8.107,-8.108c-4.478,0 -8.108,3.63 -8.108,8.108l0,53.588c0.036,2.151 0.926,4.2 2.473,5.696Z" style="fill:#fff;fill-opacity:0.0862745;"/></g><g><path d="M849.679,238.242c-3.142,-0.005 -6.154,-1.259 -8.371,-3.486c-2.224,-2.225 -3.471,-5.245 -3.466,-8.391c0.005,-3.142 1.259,-6.154 3.486,-8.37c4.607,-4.624 12.088,-4.637 16.711,-0.031c0.01,0.01 0.021,0.02 0.031,0.031l0.182,0.202c2.099,2.18 3.281,5.081 3.304,8.108c-0.005,3.142 -1.259,6.153 -3.486,8.37c-2.227,2.269 -5.273,3.548 -8.452,3.547l0.061,0.02Z" style="fill:#0a050b;fill-opacity:0.0862745;"/><path d="M845.625,230.419c2.194,2.239 5.787,2.275 8.026,0.081c0.027,-0.026 0.054,-0.054 0.081,-0.081c1.077,-1.073 1.676,-2.534 1.662,-4.054c0.004,-1.446 -0.547,-2.839 -1.54,-3.891l-0.142,-0.122c-2.193,-2.239 -5.786,-2.275 -8.025,-0.082c-0.027,0.027 -0.055,0.054 -0.082,0.082c-1.076,1.073 -1.675,2.534 -1.662,4.054c-0.013,1.519 0.586,2.98 1.662,4.053l0.02,-0.04Z" style="fill:#fff;fill-opacity:0.0862745;"/><path d="M792.503,238.242c-3.143,-0.003 -6.155,-1.257 -8.371,-3.486c-2.229,-2.216 -3.483,-5.228 -3.486,-8.37c0.005,-3.143 1.259,-6.154 3.486,-8.371c4.601,-4.629 12.082,-4.652 16.711,-0.051c0.017,0.016 0.034,0.034 0.051,0.051l0.182,0.203c2.099,2.179 3.281,5.081 3.304,8.107c-0.005,3.142 -1.259,6.153 -3.486,8.37c-2.22,2.252 -5.249,3.522 -8.412,3.527l0.021,0.02Z" style="fill:#0a050b;fill-opacity:0.0862745;"/><path d="M788.449,230.399c2.194,2.238 5.787,2.275 8.026,0.081c0.027,-0.027 0.054,-0.054 0.081,-0.081c1.077,-1.074 1.676,-2.534 1.662,-4.054c0.004,-1.447 -0.547,-2.839 -1.54,-3.891l-0.142,-0.122c-2.177,-2.239 -5.757,-2.289 -7.996,-0.111c-0.038,0.036 -0.075,0.073 -0.111,0.111c-1.076,1.073 -1.675,2.533 -1.662,4.054c-0.006,1.522 0.601,2.982 1.682,4.053l0,-0.04Z" style="fill:#fff;fill-opacity:0.0862745;"/><path d="M821.06,267.388c-7.835,0 -14.187,-6.353 -14.187,-14.188l0,-53.588c-0.114,-7.836 6.145,-14.279 13.98,-14.393c3.885,-0.057 7.623,1.483 10.341,4.259c2.693,2.682 4.198,6.332 4.175,10.134l0,53.548c0.023,3.8 -1.482,7.451 -4.175,10.134c-2.7,2.668 -6.357,4.142 -10.154,4.094l0.02,0Z" style="fill:#0a050b;fill-opacity:0.0862745;"/><path d="M815.365,258.855c3.219,3.112 8.351,3.026 11.464,-0.193c1.43,-1.479 2.244,-3.446 2.278,-5.502l0,-53.589c0,-4.478 -3.63,-8.107 -8.108,-8.107c-4.477,0 -8.107,3.629 -8.107,8.107l0,53.589c0.036,2.151 0.926,4.2 2.473,5.695Z" style="fill:#fff;fill-opacity:0.0862745;"/></g></g><path d="M0.5,0.5l0,903.783l1604.21,0l0,-903.783l-1604.21,0Z" style="fill:none;stroke:#fff;stroke-width:1px;"/></g></g></svg>