<?xml version="1.0" encoding="UTF-8" standalone="no"?>
<!DOCTYPE svg PUBLIC "-//W3C//DTD SVG 1.1//EN" "http://www.w3.org/Graphics/SVG/1.1/DTD/svg11.dtd">
<svg width="100%" height="100%" viewBox="0 0 513 432" version="1.1" xmlns="http://www.w3.org/2000/svg" xmlns:xlink="http://www.w3.org/1999/xlink" xml:space="preserve" xmlns:serif="http://www.serif.com/" style="fill-rule:evenodd;clip-rule:evenodd;stroke-linejoin:round;stroke-miterlimit:1.41421;">
    <g transform="matrix(1,0,0,1,2.3398e-14,-80.958)">
        <g transform="matrix(1.29176,0,0,1.29176,-342.077,-148.768)">
            <path d="M387.948,177.839C352.649,177.839 324.036,206.452 324.036,241.751C324.036,258.022 324.036,257.337 324.036,273.609L451.86,273.609C451.86,260.048 451.86,272.345 451.86,241.751C451.859,206.452 423.247,177.839 387.948,177.839Z" style="fill:rgb(88,90,96);fill-rule:nonzero;"/>
            <path d="M340.316,243.315L340.316,241.751C340.316,209.212 364.636,182.374 396.088,178.373C357.611,173.476 324.035,203.423 324.035,241.751C324.035,258.022 324.035,257.337 324.035,273.609L340.316,273.609C340.316,261.696 340.316,253.679 340.316,243.315Z" style="fill:rgb(65,67,86);fill-rule:nonzero;"/>
            <path d="M485.87,383.462L416.198,354.318L388.551,386.888L360.806,354.358L291.232,383.461C291.232,383.461 265.101,394.203 265.101,423.992L265.101,499.183C265.101,505.376 269.626,511.523 278.56,511.523C286.564,511.523 485.075,511.523 499.66,511.523C506.475,511.523 512,505.998 512,499.183L512,423.992C512,394.203 485.87,383.462 485.87,383.462Z" style="fill:rgb(226,226,226);fill-rule:nonzero;"/>
            <path d="M285.669,499.184L285.669,413.71C285.669,395.468 295.464,384.379 303.06,378.515L291.233,383.462C291.233,383.462 265.102,394.204 265.102,423.993L265.102,499.184C265.102,505.377 269.627,511.524 278.561,511.524L298.009,511.524C291.193,511.523 285.669,505.999 285.669,499.184Z" style="fill:rgb(211,210,209);fill-rule:nonzero;"/>
            <path d="M434.857,260.017L434.857,295.027C434.857,295.407 434.837,295.782 434.827,296.16C447.217,298.035 457.646,289.085 457.646,278.089C457.647,267.075 447.21,258.165 434.857,260.017Z" style="fill:rgb(234,151,110);fill-rule:nonzero;"/>
            <path d="M341.042,260.03C330.256,258.591 318.251,266.868 318.251,278.09C318.251,289.069 328.658,298.038 341.069,296.161C341.031,294.656 341.042,299.353 341.042,260.03Z" style="fill:rgb(234,151,110);fill-rule:nonzero;"/>
            <path d="M451.311,264.593C447.125,260.987 441.25,259.059 434.858,260.017L434.858,295.027C434.858,295.407 434.838,295.782 434.828,296.16C441.241,297.131 447.123,295.197 451.311,291.585L451.311,264.593Z" style="fill:rgb(226,134,93);fill-rule:nonzero;"/>
            <path d="M341.042,291.589C333.326,284.934 331.89,272.991 341.042,265.136L341.042,260.03C330.256,258.591 318.251,266.868 318.251,278.09C318.251,289.069 328.658,298.038 341.069,296.161C341.037,294.897 341.042,296.271 341.042,291.589Z" style="fill:rgb(226,134,93);fill-rule:nonzero;"/>
            <path d="M388.551,386.889L416.198,354.319L415.221,331.521C398.52,343.04 376.94,341.897 361.808,332.229L360.806,354.36L388.551,386.889Z" style="fill:rgb(234,151,110);fill-rule:nonzero;"/>
            <path d="M384.069,355.463C381.689,352.672 381.577,347.776 381.577,347.776L381.957,339.389C374.367,338.447 367.585,335.919 361.808,332.228L360.806,354.359L388.551,386.889L399.685,373.773C399.684,373.772 384.07,355.464 384.069,355.463Z" style="fill:rgb(226,134,93);fill-rule:nonzero;"/>
            <path d="M406.636,511.523C397.724,402.327 398.792,409.198 396.987,407.799C395.413,406.578 394.155,407.225 392.569,407.225C383.796,407.225 383.924,407.27 382.882,407.091C380.78,406.728 378.822,408.248 378.648,410.373L370.421,511.523L406.636,511.523Z" style="fill:rgb(88,90,96);fill-rule:nonzero;"/>
            <path d="M371.363,400.587L388.708,386.889L388.631,386.794L388.552,386.889L360.807,354.359C357.974,355.545 360.63,354.424 345.337,360.897L365.271,399.834C365.271,399.834 367.5,403.632 371.363,400.587Z" style="fill:rgb(186,186,186);fill-rule:nonzero;"/>
            <path d="M412.581,398.673C412.582,398.672 412.582,398.671 412.582,398.669C417.858,388.367 431.098,362.506 431.923,360.896L416.188,354.328L388.551,386.888L406.742,401.253C406.743,401.254 410.228,403.272 412.581,398.673Z" style="fill:rgb(186,186,186);fill-rule:nonzero;"/>
            <path d="M278.561,511.523L309.575,511.523L309.575,431.648C309.575,412.438 295.471,396.522 277.053,393.69L277.053,393.691C261.897,409.578 265.102,419.499 265.102,499.183C265.102,505.376 269.627,511.523 278.561,511.523Z" style="fill:rgb(186,186,186);fill-rule:nonzero;"/>
            <path d="M285.669,499.184C285.669,406.652 284.679,407.604 288.643,397.445C285.067,395.615 281.17,394.325 277.054,393.692L277.054,393.693C261.869,409.61 265.103,419.754 265.103,499.185C265.103,505.378 269.628,511.525 278.562,511.525L298.01,511.525C291.193,511.523 285.669,505.999 285.669,499.184Z" style="fill:rgb(165,164,164);fill-rule:nonzero;"/>
            <path d="M500.049,393.691C481.632,396.522 467.527,412.438 467.527,431.649L467.527,511.524C479.707,511.524 487.208,511.524 499.661,511.524C506.476,511.524 512.001,505.999 512.001,499.184L512.001,423.993C512,412.338 507.898,401.918 500.049,393.691Z" style="fill:rgb(186,186,186);fill-rule:nonzero;"/>
            <path d="M419.426,234.685C417.983,233.134 415.632,232.845 413.858,234.006C394.843,246.427 369.695,254.278 344.985,252.504C342.478,252.314 340.317,254.314 340.317,256.846L340.317,295.027C340.317,319.568 359.544,341.98 388.63,341.98C414.519,341.98 435.584,320.917 435.584,295.027L435.584,253.763C435.583,251.483 435.68,252.158 419.426,234.685Z" style="fill:rgb(240,164,121);fill-rule:nonzero;"/>
            <path d="M360.807,295.028L360.807,252.35C355.555,252.799 350.261,252.883 344.985,252.505C342.478,252.315 340.317,254.315 340.317,256.847L340.317,295.028C340.317,325.775 368.882,347.292 398.504,340.928C375.448,336.231 360.807,316.441 360.807,295.028Z" style="fill:rgb(234,144,99);fill-rule:nonzero;"/>
            <path d="M388.63,386.951L375.19,397.565L375.19,401.585C375.19,406.704 379.341,410.854 384.46,410.854L392.57,410.854C397.688,410.854 401.839,406.704 401.839,401.585L401.839,397.381L388.63,386.951Z" style="fill:rgb(65,67,86);fill-rule:nonzero;"/>
            <path d="M397.569,408.374C395.966,406.415 394.125,407.226 392.57,407.226C383.797,407.226 383.925,407.271 382.883,407.092C380.781,406.729 378.823,408.249 378.649,410.374L370.422,511.524L388.529,511.524C397.373,402.793 396.512,409.669 397.569,408.374Z" style="fill:rgb(65,67,86);fill-rule:nonzero;"/>
            <path d="M393.297,401.585L393.297,390.636L388.63,386.95L375.19,397.564L375.19,401.584C375.19,406.703 379.341,410.853 384.46,410.853C393.177,410.853 394.741,411.197 397.568,409.382C395.001,407.734 393.297,404.861 393.297,401.585Z" style="fill:rgb(50,53,68);fill-rule:nonzero;"/>
        </g>
        <g transform="matrix(1.29176,0,0,1.29176,-69.6829,254.807)">
            <path d="M450.116,61.157L443.811,19.871C442.738,12.846 437.185,7.359 430.15,6.368L389.437,0.635C380.646,-0.6 372.502,5.523 371.263,14.323C370.024,23.121 376.154,31.259 384.951,32.497L391.249,33.385L293.384,124.866L187.422,68.189C181.4,64.966 173.998,65.901 168.961,70.516L59.207,171.139C48.357,181.088 55.548,199.087 70.084,199.087C73.968,199.087 77.864,197.688 80.952,194.856L182.301,101.941L288.365,158.672C294.439,161.921 301.908,160.943 306.938,156.24L416.453,53.868L418.308,66.014C419.654,74.828 427.897,80.833 436.64,79.489C445.424,78.149 451.457,69.941 450.116,61.157Z" style="fill:rgb(202,44,104);fill-rule:nonzero;"/>
            <path d="M75.66,177.309L185.415,76.685C188.236,74.101 191.799,72.672 195.445,72.48L187.422,68.188C181.4,64.965 173.998,65.9 168.961,70.515L59.207,171.139C47.077,182.261 57.614,202.224 73.568,198.689C68.759,192.156 69.546,182.915 75.66,177.309Z" style="fill:rgb(160,25,79);fill-rule:nonzero;"/>
            <path d="M75.66,177.309L185.415,76.685C188.236,74.101 191.799,72.672 195.445,72.48L187.422,68.188C181.4,64.965 173.998,65.9 168.961,70.515L59.207,171.139C47.077,182.261 57.614,202.224 73.568,198.689C68.759,192.156 69.546,182.915 75.66,177.309Z" style="fill:rgb(160,25,79);fill-rule:nonzero;"/>
            <path d="M400.094,46.666C406.013,41.133 400.727,38.716 398.836,38.072C398.633,38.008 398.423,37.958 398.223,37.886L398.222,37.886C388.914,34.564 384.681,23.566 389.662,14.802L389.653,14.8C389.653,14.8 394.287,5.177 409.705,3.49L389.436,0.635C380.645,-0.6 372.501,5.523 371.262,14.323C370.023,23.121 376.153,31.259 384.95,32.497L391.248,33.385L293.383,124.866L297.388,126.368C302.506,127.962 311.385,129.587 317.093,124.253L400.091,46.669C400.092,46.668 400.093,46.667 400.094,46.666Z" style="fill:rgb(160,25,79);fill-rule:nonzero;"/>
            <path d="M400.094,46.666C406.013,41.133 400.727,38.716 398.836,38.072C398.633,38.008 398.423,37.958 398.223,37.886L398.222,37.886C388.914,34.564 384.681,23.566 389.662,14.802L389.653,14.8C389.653,14.8 394.287,5.177 409.705,3.49L389.436,0.635C380.645,-0.6 372.501,5.523 371.262,14.323C370.023,23.121 376.153,31.259 384.95,32.497L391.248,33.385L293.383,124.866L297.388,126.368C302.506,127.962 311.385,129.587 317.093,124.253L400.091,46.669C400.092,46.668 400.093,46.667 400.094,46.666Z" style="fill:rgb(160,25,79);fill-rule:nonzero;"/>
        </g>
    </g>
</svg>
