<?xml version="1.0" encoding="UTF-8" standalone="no"?>
<!DOCTYPE svg PUBLIC "-//W3C//DTD SVG 1.1//EN" "http://www.w3.org/Graphics/SVG/1.1/DTD/svg11.dtd">
<svg width="100%" height="100%" viewBox="0 0 512 512" version="1.1" xmlns="http://www.w3.org/2000/svg" xmlns:xlink="http://www.w3.org/1999/xlink" xml:space="preserve" xmlns:serif="http://www.serif.com/" style="fill-rule:evenodd;clip-rule:evenodd;stroke-linejoin:round;stroke-miterlimit:1.41421;">
    <g transform="matrix(1.07803,0,0,1.07803,-19.9403,-19.9747)">
        <path d="M311.856,241.076C311.852,241.077 311.849,241.078 311.845,241.08C323.375,253.603 329.143,269.641 329.143,286.157L329.143,308.037L305.964,308.037L305.964,485.746L275.059,485.746L275.059,400.757C275.059,390.8 266.988,382.729 257.031,382.729C257.031,380.742 226.123,303.146 226.123,303.146C226.123,303.146 257.031,219.071 257.031,216.869C277.448,216.896 297.448,225.42 311.856,241.076Z" style="fill:rgb(182,176,162);fill-rule:nonzero;"/>
    </g>
    <g transform="matrix(1.07803,0,0,1.07803,-19.9403,-19.9747)">
        <path d="M202.204,241.076C202.208,241.077 202.211,241.078 202.215,241.08C190.685,253.603 184.917,269.641 184.917,286.157L184.917,308.037L208.096,308.037L208.096,485.746L239.001,485.746L239.001,400.757C239.001,390.8 247.072,382.729 257.029,382.729C257.029,378.644 257.029,221.158 257.029,216.869C236.612,216.896 216.612,225.42 202.204,241.076Z" style="fill:rgb(211,205,191);fill-rule:nonzero;"/>
    </g>
    <g transform="matrix(1.07803,0,0,1.07803,-19.9403,-19.9747)">
        <path d="M306.077,58.218C291.661,47.96 274.915,41.737 257.053,41.737C208.324,41.737 167.918,88.05 160.418,136.225C157.656,135.063 154.622,134.42 151.438,134.42C138.637,134.42 128.259,144.798 128.259,157.599C128.259,170.4 138.637,180.778 151.438,180.778C155.594,180.778 159.49,179.679 162.863,177.764C165.694,187.437 170.04,196.48 175.57,204.745C178.28,208.797 193.811,220.949 215.951,225.582L268.709,236.622L316.055,190.19C354.489,152.499 350.036,89.495 306.077,58.218Z" style="fill:rgb(237,180,140);fill-rule:nonzero;"/>
        <path d="M362.255,134.453C359.245,134.453 356.394,135.113 353.817,136.273C353.703,135.493 353.582,134.715 353.451,133.941C348.262,103.376 331.31,75.531 306.077,58.218C320.453,78.047 327.715,100.693 327.715,124.397C327.715,177.708 283.888,220.925 229.825,220.925C209.755,220.925 191.098,214.965 175.568,204.748C190.496,226.812 214.396,242.465 242.125,246.651L257.03,261.167L271.945,246.641C311.038,240.748 342.573,212.052 352.028,174.693C352.158,174.181 352.274,173.665 352.395,173.151C355.324,174.751 358.683,175.662 362.255,175.662C373.634,175.662 382.859,166.437 382.859,155.058C382.859,143.677 373.634,134.453 362.255,134.453Z" style="fill:rgb(237,180,140);fill-rule:nonzero;"/>
        <circle cx="222.426" cy="157.628" r="8.651" style="fill:rgb(53,64,74);"/>
        <circle cx="291.644" cy="157.628" r="8.651" style="fill:rgb(53,64,74);"/>
        <circle cx="151.437" cy="157.628" r="7.726" style="fill:rgb(206,121,95);"/>
        <circle cx="362.253" cy="155.053" r="7.726" style="fill:rgb(182,102,82);"/>
        <g transform="matrix(1,0,0,1,0,22.1402)">
            <path d="M257.03,176.797C250.839,176.797 245.018,174.385 240.64,170.008C237.623,166.991 237.623,162.098 240.641,159.081C243.658,156.065 248.551,156.065 251.567,159.081C253.026,160.541 254.967,161.344 257.03,161.344C259.093,161.344 261.034,160.54 262.493,159.081C265.511,156.064 270.404,156.064 273.419,159.081C276.437,162.098 276.437,166.991 273.42,170.008C269.042,174.385 263.222,176.797 257.03,176.797Z" style="fill:white;fill-rule:nonzero;"/>
        </g>
        <path d="M257.052,18.529C204.486,18.529 161.896,59.015 144.593,105.591C139.992,117.975 146.784,131.33 159.228,135.768C159.626,135.91 160.02,136.064 160.412,136.227C221.376,136.227 275.135,105.381 306.936,58.446C313.981,48.047 310.752,33.534 299.541,27.869C289.735,22.914 272.959,18.529 257.052,18.529Z" style="fill:rgb(217,110,40);fill-rule:nonzero;"/>
        <path d="M364.954,116.22C354.589,81.001 336.262,60.162 310.282,42.335C309.016,36.004 305.336,30.719 299.053,27.635C296.648,26.45 293.859,25.303 290.774,24.244L284.76,33.119C259.762,70.016 213.967,109.442 160.411,109.442L143.533,109.442C142.983,112.409 143.06,115.37 143.654,118.199L143.634,118.199C145.269,125.988 151.036,132.848 159.228,135.768C159.626,135.91 160.02,136.064 160.412,136.227C209.285,136.227 254.523,116.241 287.172,82.693C293.903,113.309 321.175,136.226 353.813,136.227C353.814,136.233 353.815,136.239 353.816,136.246C354.162,136.09 354.512,135.944 354.865,135.808C362.788,132.745 367.352,124.367 364.954,116.22Z" style="fill:rgb(205,100,50);fill-rule:nonzero;"/>
    </g>
    <g transform="matrix(1.07803,0,0,1.07803,-19.9403,-19.9747)">
        <path d="M214.977,465.156C202.417,465.603 192.644,476.308 192.644,488.876C192.644,491.414 194.701,493.472 197.24,493.472L234.408,493.472C236.946,493.472 239.004,491.415 239.004,488.876L239.004,488.321C239.002,475.238 228.164,464.687 214.977,465.156Z" style="fill:rgb(77,89,103);fill-rule:nonzero;"/>
    </g>
    <g transform="matrix(1.07803,0,0,1.07803,-19.9403,-19.9747)">
        <path d="M297.392,465.156C284.832,465.603 275.059,476.308 275.059,488.876C275.059,491.414 277.116,493.472 279.655,493.472L316.822,493.472C319.36,493.472 321.418,491.415 321.418,488.876L321.418,488.321C321.416,475.238 310.579,464.687 297.392,465.156Z" style="fill:rgb(53,64,74);fill-rule:nonzero;"/>
    </g>
    <g transform="matrix(1.07803,0,0,1.07803,-19.9403,-19.9747)">
        <g transform="matrix(0.924908,0,0,0.772264,25.4375,48.7993)">
            <path d="M357.646,289.333C357.646,279.352 350.88,271.248 342.546,271.248L158.249,271.248C149.914,271.248 143.148,279.352 143.148,289.333L143.148,467.661C143.148,477.642 149.914,485.746 158.249,485.746L342.546,485.746C350.88,485.746 357.646,477.642 357.646,467.661L357.646,289.333Z" style="fill:white;"/>
        </g>
        <g transform="matrix(0.973277,0,0,0.973277,-5.07691,-12.227)">
            <path d="M365.108,280.426C368.887,283.012 371.37,287.357 371.37,292.278L371.37,433.776C371.37,441.695 364.94,448.125 357.02,448.125L181.881,448.125C176.374,448.125 171.587,445.016 169.181,440.458C171.485,442.034 174.27,442.956 177.269,442.956L352.408,442.956C360.328,442.956 366.758,436.526 366.758,428.606L366.758,287.109C366.758,284.697 366.161,282.423 365.108,280.426Z" style="fill:rgb(181,183,183);"/>
        </g>
        <g transform="matrix(3.04949,-0.817109,0.817109,3.04949,197.27,306.079)">
            <path d="M22.301,15.658L30.02,23.377C30.939,24.296 31.389,25.408 31.371,26.712C31.371,27.999 30.92,29.092 30.02,29.993C29.101,30.912 27.998,31.371 26.712,31.371C25.425,31.371 24.323,30.912 23.404,29.993L15.685,22.274L7.967,29.993C7.048,30.912 5.954,31.38 4.686,31.399C3.4,31.399 2.288,30.93 1.351,29.993C0.45,29.092 0,27.999 0,26.712C0.018,25.444 0.487,24.351 1.406,23.432L9.124,15.713L1.378,7.967C0.478,7.067 0.028,5.973 0.028,4.687C0.028,3.4 0.487,2.298 1.406,1.379C2.306,0.478 3.4,0.028 4.686,0.028C5.991,0.01 7.094,0.451 7.994,1.351L15.74,9.097L23.459,1.379C24.36,0.478 25.444,0.019 26.712,0.001C28.017,-0.018 29.119,0.423 30.02,1.324C30.957,2.261 31.417,3.382 31.398,4.687C31.38,5.955 30.92,7.039 30.02,7.94L22.301,15.658ZM30.02,6.12C30.351,5.165 30.295,4.227 29.854,3.309C29.652,2.886 29.404,2.527 29.11,2.233C28.853,1.976 28.568,1.783 28.256,1.655C28.053,1.563 27.916,1.553 27.842,1.627C27.732,1.737 27.75,1.866 27.897,2.013C29.037,3.152 29.615,4.521 29.634,6.12C29.615,6.249 29.634,6.341 29.689,6.396C29.726,6.433 29.772,6.442 29.827,6.424C29.864,6.424 29.891,6.414 29.91,6.396C29.946,6.359 29.983,6.267 30.02,6.12ZM29.882,27.815C30.213,26.859 30.167,25.931 29.744,25.031C29.524,24.59 29.276,24.231 29,23.956C28.743,23.698 28.458,23.505 28.145,23.377C27.925,23.267 27.778,23.248 27.704,23.322C27.594,23.432 27.612,23.561 27.759,23.708C28.917,24.865 29.496,26.235 29.496,27.815C29.478,27.944 29.496,28.036 29.551,28.091C29.588,28.127 29.634,28.137 29.689,28.118C29.744,28.137 29.781,28.137 29.799,28.118C29.836,28.082 29.864,27.98 29.882,27.815Z" style="fill:rgb(202,51,106);fill-rule:nonzero;"/>
        </g>
    </g>
    <g transform="matrix(1.07803,0,0,1.07803,-19.9403,-19.9747)">
        <path d="M182.342,246.741C173.808,246.741 166.889,253.66 166.889,262.194L166.889,272.496C166.889,281.03 173.808,287.949 182.342,287.949C190.876,287.949 197.795,281.03 197.795,272.496L197.795,262.194C197.795,253.659 190.876,246.741 182.342,246.741Z" style="fill:rgb(237,180,140);fill-rule:nonzero;"/>
    </g>
    <g transform="matrix(1.07803,0,0,1.07803,-19.9403,-19.9747)">
        <path d="M331.718,245.195C323.184,245.195 316.265,252.114 316.265,260.648L316.265,270.95C316.265,279.484 323.184,286.403 331.718,286.403C340.252,286.403 347.171,279.484 347.171,270.95L347.171,260.648C347.171,252.114 340.252,245.195 331.718,245.195Z" style="fill:rgb(237,180,140);fill-rule:nonzero;"/>
    </g>
</svg>
