<?xml version="1.0" encoding="UTF-8" standalone="no"?><!DOCTYPE svg PUBLIC "-//W3C//DTD SVG 1.1//EN" "http://www.w3.org/Graphics/SVG/1.1/DTD/svg11.dtd"><svg width="100%" height="100%" viewBox="0 0 663 345" version="1.1" xmlns="http://www.w3.org/2000/svg" xmlns:xlink="http://www.w3.org/1999/xlink" xml:space="preserve" xmlns:serif="http://www.serif.com/" style="fill-rule:evenodd;clip-rule:evenodd;stroke-linejoin:round;stroke-miterlimit:1.41421;"><g><g><path d="M44.792,235.276l11.877,58.383c0.792,3.892 0.103,7.477 -2.067,10.756c-2.171,3.279 -5.163,5.306 -8.977,6.082c-3.893,0.792 -7.478,0.103 -10.757,-2.067c-3.279,-2.17 -5.314,-5.202 -6.106,-9.094l-28.482,-140.002c-0.73,-3.986 -0.033,-7.533 2.091,-10.64c2.186,-3.201 5.21,-5.275 9.07,-6.223l87.458,-17.792c18.793,-3.256 33.952,1.523 45.477,14.338c5.973,6.648 9.846,14.332 11.62,23.05c0.665,3.27 1.027,6.641 1.085,10.115c0.278,13.32 -3.658,24.456 -11.808,33.41c-6.396,6.814 -14.832,11.57 -25.308,14.269l40.392,45.529c1.627,2.02 2.686,4.237 3.177,6.65c0.237,1.167 0.366,2.398 0.386,3.691c-0.252,3.942 -1.9,7.196 -4.945,9.761c-1.911,1.767 -4.034,2.888 -6.369,3.363c-1.245,0.253 -2.57,0.32 -3.972,0.2c-3.927,-0.174 -7.164,-1.745 -9.714,-4.712l-51.158,-57.809l-42.97,8.742Zm-5.701,-28.024l73.562,-14.966c9.326,-1.978 14.582,-7.222 15.769,-15.732c0.349,-2.666 0.263,-5.283 -0.26,-7.851c-0.617,-3.036 -1.866,-5.985 -3.745,-8.845c-3.758,-5.721 -8.666,-8.33 -14.725,-7.827l-5.092,0.672l-73.562,14.965l8.053,39.584Zm96.806,-66.875c-9.255,-9.628 -21.238,-12.946 -35.951,-9.953c-1.79,0.364 -3.604,0.814 -5.44,1.35c-1.354,0.519 -1.96,1.128 -1.817,1.829c0.19,0.934 1.025,1.251 2.504,0.95c11.849,-1.925 24.898,0.852 39.147,8.33c0.889,0.386 1.567,0.532 2.034,0.437c0.156,-0.032 0.327,-0.188 0.513,-0.469c0.124,-0.187 0.154,-0.437 0.091,-0.748c-0.095,-0.467 -0.455,-1.042 -1.081,-1.726Z" style="fill:#fff;fill-rule:nonzero;"/><path d="M206.666,214.747c0.776,3.814 0.079,7.361 -2.092,10.64c-2.154,3.356 -5.177,5.431 -9.07,6.223c-3.814,0.776 -7.369,0.04 -10.663,-2.209c-3.279,-2.17 -5.306,-5.162 -6.082,-8.977l-19.028,-93.529c-0.776,-3.814 -0.079,-7.361 2.091,-10.64c2.155,-3.356 5.139,-5.423 8.953,-6.199c3.893,-0.792 7.486,-0.064 10.781,2.185c3.279,2.17 5.306,5.162 6.082,8.977l19.028,93.529Zm-24.459,-96.316c-1.939,-2.361 -4.413,-3.763 -7.422,-4.205c-1.418,-0.198 -2.75,-0.17 -3.996,0.083c-1.089,0.222 -2.062,0.622 -2.917,1.202c-0.715,0.469 -1.049,0.821 -1.001,1.055c-0.369,1.372 -0.499,2.33 -0.388,2.875c0.064,0.312 0.251,0.436 0.562,0.372c1.4,-0.69 2.684,-1.154 3.852,-1.391c3.736,-0.76 6.88,0.546 9.43,3.918c0.375,0.248 0.64,0.356 0.796,0.325c0.913,-1.889 1.4,-2.879 1.462,-2.973c0.062,-0.094 0.077,-0.218 0.046,-0.374c-0.048,-0.234 -0.189,-0.529 -0.424,-0.887Z" style="fill:#fff;fill-rule:nonzero;"/><path d="M238.865,208.318c-1.919,-1.069 -3.871,-2.293 -5.854,-3.673c-13.491,-9.334 -21.892,-22.136 -25.202,-38.405l-0.166,-0.818c-3.249,-16.768 -0.277,-32.045 8.916,-45.832c6.867,-10.477 16.173,-18.126 27.92,-22.947c3.905,-1.524 7.843,-2.69 11.813,-3.498c7.862,-1.599 15.877,-1.649 24.046,-0.15c12.082,2.406 22.593,8.05 31.534,16.932c8.785,8.914 14.444,19.395 16.976,31.445c2.407,11.833 1.34,23.521 -3.202,35.064c-4.543,11.544 -11.702,20.783 -21.478,27.717c-7.104,4.931 -14.96,8.353 -23.569,10.266c-8.387,3.004 -14.079,6.107 -17.075,9.311c-4.799,4.705 -7.849,10.433 -9.151,17.183c-0.733,4.365 -0.672,8.649 0.183,12.852c0.443,2.18 1.081,4.32 1.914,6.42c2.999,7.173 8.073,12.585 15.22,16.238c7.008,3.763 14.404,4.852 22.188,3.269c3.814,-0.776 7.361,-0.079 10.64,2.091c3.372,2.232 5.447,5.256 6.223,9.07c0.776,3.814 0.047,7.408 -2.185,10.78c-2.17,3.279 -5.162,5.306 -8.977,6.082c-12.159,2.393 -24.066,1.248 -35.719,-3.434c-11.84,-4.806 -21.142,-12.276 -27.906,-22.412c-4.634,-6.839 -7.743,-14.151 -9.327,-21.935c-0.839,-4.126 -1.25,-8.339 -1.233,-12.639c-0.058,-12.635 3.324,-24.104 10.145,-34.409c1.054,-1.593 2.163,-3.115 3.326,-4.568Zm36.033,-21.922c8.92,-1.977 15.892,-6.76 20.914,-14.348c5.163,-7.698 6.833,-16.022 5.012,-24.975c-1.552,-7.628 -5.397,-13.98 -11.537,-19.054c-6.217,-5.058 -13.221,-7.605 -21.01,-7.642c-2.431,0.008 -4.775,0.242 -7.032,0.701c-6.15,1.251 -11.655,4.276 -16.515,9.075c-6.6,6.612 -9.908,14.459 -9.924,23.542c0.008,2.43 0.233,4.735 0.677,6.915c1.504,7.395 5.404,13.614 11.699,18.656c8.154,6.61 17.393,8.986 27.716,7.13Zm22.291,-78.71c-4.831,-5.017 -11.299,-8.119 -19.404,-9.307c-5.113,-0.825 -9.965,-0.77 -14.558,0.165c-2.102,0.427 -4.164,1.05 -6.187,1.866c-1.353,0.519 -1.967,1.09 -1.84,1.712l0.023,0.117c0.175,0.856 0.978,1.22 2.411,1.09c13.736,-1.416 26.394,0.832 37.973,6.745c0.906,0.465 1.592,0.649 2.059,0.554c0.155,-0.031 0.334,-0.149 0.536,-0.352c0.108,-0.265 0.131,-0.553 0.067,-0.865c-0.095,-0.467 -0.455,-1.042 -1.08,-1.725Zm7.909,179.937c-1.94,-2.361 -4.414,-3.763 -7.422,-4.205c-1.418,-0.198 -2.75,-0.17 -3.996,0.083c-1.089,0.222 -2.062,0.623 -2.917,1.202c-0.715,0.47 -1.382,1.375 -2,2.717c-0.295,0.546 -0.41,0.975 -0.347,1.287c0.079,0.389 0.508,0.504 1.287,0.346l0.233,-0.048c1.4,-0.69 2.684,-1.153 3.851,-1.391c3.737,-0.76 6.881,0.546 9.431,3.918c0.187,0.124 0.359,0.17 0.515,0.139c0.389,-0.08 0.762,-0.439 1.118,-1.079c0.558,-0.843 0.789,-1.498 0.694,-1.965l-0.023,-0.117c-0.048,-0.234 -0.189,-0.529 -0.424,-0.887Z" style="fill:#fff;fill-rule:nonzero;"/><path d="M320.185,45.856c-0.776,-3.815 -0.079,-7.361 2.091,-10.64c2.233,-3.372 5.256,-5.447 9.07,-6.223c3.815,-0.776 7.408,-0.048 10.781,2.185c3.278,2.17 5.306,5.162 6.082,8.977l8.623,42.386c8.945,-8.63 19.061,-14.092 30.349,-16.389c4.125,-0.839 8.377,-1.258 12.755,-1.257c12.307,-0.072 23.637,3.419 33.989,10.474c9.884,6.744 17.486,15.817 22.805,27.219l3.755,11.882l9.502,46.707c0.792,3.892 0.103,7.478 -2.068,10.756c-2.248,3.295 -5.279,5.33 -9.093,6.106c-3.815,0.776 -7.4,0.087 -10.757,-2.067c-3.279,-2.171 -5.314,-5.202 -6.106,-9.094l-9.502,-46.706c-4.224,-14.787 -12.884,-23.482 -25.979,-26.088c-4.396,-0.889 -8.696,-0.906 -12.9,-0.05c-2.257,0.459 -4.428,1.144 -6.513,2.054c-6.269,2.654 -11.272,6.752 -15.009,12.295c-2.402,3.731 -4.033,7.671 -4.892,11.818c-0.368,1.777 -0.361,6.193 0.021,13.25l9.502,46.706c0.792,3.892 0.103,7.478 -2.068,10.757c-2.248,3.294 -5.279,5.33 -9.093,6.106c-3.815,0.776 -7.4,0.086 -10.757,-2.068c-3.279,-2.17 -5.314,-5.202 -6.106,-9.094l-28.482,-140.002Zm22.312,-8.674c-1.94,-2.361 -4.414,-3.763 -7.422,-4.205c-1.418,-0.198 -2.75,-0.17 -3.996,0.083c-1.09,0.222 -2.062,0.623 -2.917,1.202c-0.715,0.47 -1.382,1.375 -2.001,2.717c-0.294,0.546 -0.409,0.975 -0.346,1.287c0.079,0.389 0.508,0.504 1.287,0.346l0.233,-0.048c1.4,-0.69 2.684,-1.154 3.851,-1.391c3.737,-0.76 6.88,0.546 9.431,3.918c0.187,0.124 0.359,0.17 0.515,0.139c0.389,-0.08 0.761,-0.439 1.118,-1.079c0.558,-0.843 0.789,-1.498 0.694,-1.965l-0.024,-0.117c-0.047,-0.234 -0.188,-0.529 -0.423,-0.887Zm86.045,42.808c-4.83,-5.016 -11.298,-8.118 -19.403,-9.307c-5.113,-0.824 -9.966,-0.769 -14.558,0.165c-2.102,0.428 -4.164,1.05 -6.187,1.867c-1.354,0.518 -1.967,1.089 -1.84,1.712l0.023,0.117c0.175,0.856 0.978,1.219 2.411,1.09c13.736,-1.416 26.394,0.832 37.973,6.745c0.905,0.464 1.592,0.649 2.059,0.554c0.155,-0.032 0.334,-0.149 0.536,-0.352c0.108,-0.266 0.131,-0.554 0.067,-0.865c-0.095,-0.467 -0.455,-1.043 -1.081,-1.726Z" style="fill:#fff;fill-rule:nonzero;"/><path d="M549.618,159.568c-12.455,2.534 -24.79,1.274 -37.005,-3.78c-13.151,-5.269 -22.012,-13.559 -26.583,-24.87l-7.809,-29.419l-4.705,-23.727l-2.336,0.475c-3.814,0.776 -7.353,0.118 -10.616,-1.975c-3.356,-2.154 -5.439,-5.216 -6.246,-9.186c-0.776,-3.815 -0.04,-7.369 2.208,-10.664c2.154,-3.357 5.139,-5.423 8.953,-6.199l2.335,-0.475l-6.627,-32.578c-0.776,-3.814 -0.087,-7.4 2.067,-10.756c2.171,-3.279 5.202,-5.314 9.094,-6.106c3.892,-0.792 7.447,-0.056 10.664,2.208c3.356,2.154 5.423,5.139 6.199,8.953l6.51,32.602l19.267,-3.92c3.814,-0.776 7.369,-0.04 10.663,2.208c3.357,2.155 5.423,5.139 6.199,8.953c0.808,3.97 0.088,7.603 -2.16,10.897c-2.186,3.201 -5.187,5.19 -9.001,5.966l-19.266,3.919l4.822,23.704c0.174,0.856 0.705,3.666 1.594,8.431c0.286,1.806 0.572,3.41 0.857,4.811c0.301,1.479 0.609,2.794 0.924,3.946c1.923,6.662 5.093,11.286 9.51,13.873c7.884,4.882 16.146,6.443 24.787,4.686c3.892,-0.792 7.47,-0.142 10.733,1.95c3.294,2.249 5.338,5.319 6.129,9.211c0.792,3.892 0.103,7.478 -2.067,10.756c-2.17,3.279 -5.202,5.315 -9.094,6.106Zm-66.002,-151.095c-1.94,-2.362 -4.414,-3.763 -7.422,-4.205c-1.419,-0.198 -2.751,-0.17 -3.996,0.083c-1.09,0.222 -2.062,0.622 -2.917,1.202c-0.715,0.469 -1.437,1.305 -2.165,2.507c-0.185,0.686 -0.246,1.185 -0.182,1.496c0.079,0.39 0.508,0.505 1.286,0.347l0.234,-0.048c1.4,-0.69 2.683,-1.154 3.851,-1.391c3.736,-0.76 6.88,0.546 9.431,3.918c0.187,0.124 0.358,0.17 0.514,0.138c0.389,-0.079 0.762,-0.438 1.118,-1.078c0.558,-0.843 0.79,-1.499 0.695,-1.966l-0.024,-0.116c-0.047,-0.234 -0.189,-0.529 -0.423,-0.887Zm42.521,39.259c-1.94,-2.361 -4.414,-3.763 -7.422,-4.205c-1.419,-0.198 -2.751,-0.17 -3.996,0.083l-5.605,1.141c-0.48,0.827 -0.657,1.552 -0.53,2.175c0.032,0.155 0.11,0.342 0.235,0.56c0.47,0.715 1.297,0.993 2.48,0.833c1.184,-0.16 2.359,-0.358 3.527,-0.596c3.736,-0.76 6.88,0.546 9.431,3.918c0.187,0.124 0.358,0.17 0.514,0.139c0.389,-0.079 0.762,-0.439 1.118,-1.079c0.558,-0.843 0.79,-1.498 0.695,-1.965l-0.024,-0.117c-0.047,-0.234 -0.189,-0.529 -0.423,-0.887Z" style="fill:#fff;fill-rule:nonzero;"/></g><g><path d="M375.03,207.924c-14.632,3.134 -26.17,11.001 -34.612,23.601c-8.323,12.81 -10.978,26.621 -7.964,41.432c2.569,12.63 8.935,23.157 19.097,31.581c10.178,8.499 21.651,12.702 34.421,12.609c3.875,-0.005 7.598,-0.371 11.171,-1.098c10.196,-2.074 19.327,-7.102 27.392,-15.085c10.821,-10.814 16.178,-23.725 16.069,-38.736c-0.005,-3.835 -0.374,-7.557 -1.109,-11.165c-1.713,-8.421 -5.397,-16.244 -11.053,-23.471c-8.13,-10.246 -18.401,-16.73 -30.813,-19.45c-7.385,-1.629 -14.918,-1.702 -22.599,-0.218Zm-5.283,-27.11c22.777,-4.242 43.453,0.046 62.027,12.865c11.246,7.655 20.09,17.6 26.532,29.834c3.793,7.214 6.477,14.693 8.052,22.437c1.086,5.338 1.614,10.789 1.584,16.354c0.07,16.349 -4.485,31.486 -13.666,45.41c-9.091,13.985 -21.093,24.139 -36.006,30.461c-5.055,2.203 -10.225,3.842 -15.509,4.917c-7.741,1.574 -15.763,1.954 -24.068,1.138c-13.805,-1.184 -26.42,-5.664 -37.845,-13.44c-13.787,-9.095 -23.895,-21.445 -30.325,-37.048c-2.159,-5.276 -3.788,-10.621 -4.89,-16.034c-2.11,-10.375 -2.166,-20.933 -0.165,-31.674c3.059,-16.203 10.429,-30.268 22.109,-42.196c11.561,-11.747 25.358,-19.369 41.388,-22.865l0.782,-0.159Zm57.311,17.113c-4.75,-5.062 -12.78,-8.909 -24.089,-11.541c-9.026,-2.078 -16.331,-2.549 -21.913,-1.414c-1.265,0.258 -2.441,0.575 -3.526,0.953c-1.279,0.573 -1.865,1.123 -1.758,1.649c0.184,0.902 0.99,1.247 2.42,1.034c14.149,-1.312 29.965,2.516 47.447,11.487c0.807,0.54 1.434,0.765 1.881,0.674c0.223,-0.045 0.386,-0.196 0.489,-0.452c0.118,-0.181 0.139,-0.459 0.063,-0.835c-0.092,-0.451 -0.43,-0.969 -1.014,-1.555Z" style="fill:#cc386b;fill-rule:nonzero;"/><path d="M471.588,221.046c-0.749,-3.684 -0.052,-7.114 2.092,-10.291c2.055,-3.236 4.905,-5.225 8.552,-5.967c6.699,-1.363 11.636,0.999 14.812,7.086c8.332,-8.193 18.295,-13.508 29.891,-15.946c11.685,-2.377 22.978,-1.347 33.88,3.09c14.022,5.681 24.641,15.969 31.857,30.865c1.717,3.487 3.08,7.711 4.089,12.673l9.177,45.108c0.765,3.759 0.113,7.22 -1.957,10.381c-1.995,3.146 -4.891,5.105 -8.687,5.878c-3.647,0.741 -7.04,0.062 -10.181,-2.04c-3.214,-2.086 -5.204,-5.008 -5.969,-8.768l-9.177,-45.108c-1.285,-6.315 -4.219,-11.786 -8.803,-16.412c-4.674,-4.686 -10.076,-7.619 -16.207,-8.799c-4.281,-0.852 -8.394,-0.876 -12.338,-0.074c-3.722,0.758 -7.328,2.274 -10.818,4.55c-7.144,4.507 -11.745,10.845 -13.803,19.015c-1.184,4.468 -1.33,9.274 -0.439,14.416l9.177,45.109c0.765,3.759 0.112,7.219 -1.957,10.38c-2.07,3.162 -4.965,5.121 -8.687,5.878c-3.647,0.742 -7.04,0.062 -10.181,-2.039c-3.215,-2.087 -5.204,-5.009 -5.969,-8.768l-18.354,-90.217Zm95.609,-11.23c-4.481,-4.882 -10.599,-7.904 -18.354,-9.067c-4.966,-0.79 -9.608,-0.746 -13.925,0.132c-2.084,0.424 -4.055,1.021 -5.914,1.79c-1.294,0.498 -1.879,1.048 -1.757,1.649l0.023,0.113c0.168,0.827 0.938,1.18 2.308,1.057c13.062,-1.326 25.173,0.869 36.334,6.584c0.792,0.465 1.412,0.652 1.858,0.561c0.224,-0.045 0.395,-0.158 0.513,-0.339c0.177,-0.271 0.243,-0.519 0.197,-0.745c-0.107,-0.526 -0.535,-1.104 -1.283,-1.735Zm-74.31,2.199c-1.859,-2.283 -4.228,-3.641 -7.107,-4.074c-1.357,-0.193 -2.631,-0.169 -3.822,0.073c-1.041,0.212 -1.971,0.597 -2.787,1.155c-0.684,0.452 -1.32,1.325 -1.909,2.619c-0.28,0.527 -0.39,0.941 -0.329,1.242c0.077,0.376 0.487,0.488 1.231,0.336l0.224,-0.045c1.337,-0.664 2.564,-1.109 3.681,-1.336c3.572,-0.727 6.582,0.54 9.028,3.8c0.179,0.12 0.343,0.165 0.492,0.135c0.372,-0.076 0.728,-0.422 1.067,-1.039c0.533,-0.813 0.753,-1.445 0.661,-1.896l-0.023,-0.113c-0.046,-0.226 -0.181,-0.511 -0.407,-0.857Z" style="fill:#cc386b;fill-rule:nonzero;"/><path d="M646.747,191.782c1.256,6.173 0.276,11.902 -2.939,17.185c-3.266,5.036 -7.842,8.153 -13.728,9.351c-5.769,1.173 -11.14,0.08 -16.114,-3.28c-5.025,-3.607 -8.165,-8.497 -9.421,-14.671l-30.068,-147.798c-1.231,-6.05 -0.226,-11.655 3.015,-16.815c3.216,-5.283 7.708,-8.511 13.476,-9.685c5.886,-1.197 11.342,0.007 16.366,3.614c4.999,3.484 8.115,8.25 9.345,14.301l30.068,147.798Zm-1.558,100.805c-5.768,1.173 -11.152,0.018 -16.151,-3.465c-5.025,-3.607 -8.152,-8.435 -9.383,-14.485c-1.231,-6.051 -0.226,-11.656 3.015,-16.815c3.216,-5.284 7.708,-8.512 13.476,-9.686c5.886,-1.197 11.341,0.008 16.366,3.615c4.999,3.483 8.114,8.25 9.345,14.3c1.231,6.05 0.238,11.717 -2.978,17c-3.241,5.16 -7.804,8.338 -13.69,9.536Zm-36.929,-253.834c-2.973,-3.767 -6.754,-6.084 -11.344,-6.95c-2.152,-0.334 -4.111,-0.321 -5.877,0.038c-1.765,0.359 -3.292,0.991 -4.579,1.896c-0.841,0.686 -1.224,1.214 -1.149,1.584l0.113,0.556c0.126,0.617 0.66,0.83 1.601,0.638c7.299,-1.485 14.078,-0.099 20.338,4.156c0.546,0.275 0.937,0.388 1.172,0.34c0.118,-0.023 0.223,-0.109 0.316,-0.257c0.21,-0.171 0.303,-0.318 0.278,-0.442c-0.101,-0.494 -0.39,-1.013 -0.869,-1.559Zm46.818,220.19c-2.973,-3.767 -6.742,-6.022 -11.306,-6.765c-2.152,-0.333 -4.17,-0.309 -6.053,0.075c-1.648,0.335 -3.116,0.955 -4.403,1.86c-1.076,0.733 -2.074,2.157 -2.992,4.273c-0.438,0.861 -0.607,1.538 -0.506,2.032c0.126,0.617 0.777,0.806 1.954,0.567l0.353,-0.072c2.111,-1.073 4.05,-1.789 5.816,-2.148c5.65,-1.149 10.432,0.964 14.345,6.34c0.286,0.199 0.546,0.274 0.782,0.227c0.588,-0.12 1.148,-0.684 1.678,-1.692c0.834,-1.327 1.175,-2.361 1.024,-3.102l-0.037,-0.185c-0.076,-0.37 -0.294,-0.84 -0.655,-1.41Z" style="fill:#cc386b;fill-rule:nonzero;"/></g><path d="M160.659,62.781l14.977,-22.706c1.106,-1.723 2.658,-2.788 4.656,-3.194c1.957,-0.399 3.782,-0.021 5.473,1.133c1.683,1.114 2.723,2.65 3.122,4.608c0.414,2.037 0.064,3.897 -1.049,5.58l-14.991,22.647l22.647,14.99c1.691,1.154 2.74,2.73 3.147,4.728c0.398,1.957 0.044,3.798 -1.062,5.521c-1.114,1.683 -2.649,2.723 -4.607,3.121c-1.998,0.407 -3.838,0.053 -5.521,-1.061l-22.671,-15.11l-15.086,22.791c-1.114,1.683 -2.65,2.724 -4.607,3.122c-1.998,0.407 -3.838,0.053 -5.521,-1.061c-1.691,-1.154 -2.736,-2.71 -3.134,-4.667c-0.407,-1.998 -0.057,-3.858 1.049,-5.581l14.99,-22.647l-22.647,-14.99c-1.683,-1.114 -2.732,-2.69 -3.146,-4.728c-0.399,-1.957 -0.041,-3.778 1.073,-5.461c1.106,-1.722 2.658,-2.787 4.655,-3.194c1.958,-0.398 3.783,-0.02 5.474,1.134l22.779,15.025Zm25.871,-21.927c-0.996,-1.212 -2.265,-1.931 -3.81,-2.158c-0.728,-0.102 -1.411,-0.088 -2.05,0.043c-0.56,0.113 -1.059,0.319 -1.498,0.616c-0.367,0.241 -0.737,0.67 -1.111,1.287c-0.095,0.352 -0.126,0.608 -0.093,0.768c0.04,0.2 0.26,0.259 0.66,0.178l0.12,-0.024c0.718,-0.355 1.377,-0.593 1.977,-0.715c1.917,-0.39 3.531,0.281 4.84,2.011c0.096,0.064 0.184,0.088 0.264,0.072c0.2,-0.041 0.391,-0.226 0.574,-0.554c0.286,-0.433 0.405,-0.769 0.356,-1.009l-0.012,-0.06c-0.024,-0.12 -0.097,-0.271 -0.217,-0.455Zm-58.108,12.259c-0.04,0.216 -0.047,0.384 -0.023,0.503l0.013,0.06c0.048,0.24 0.289,0.503 0.722,0.79c0.297,0.231 0.545,0.326 0.744,0.285c0.08,-0.016 0.152,-0.072 0.216,-0.169c0.529,-2.104 1.752,-3.352 3.67,-3.742c0.599,-0.122 1.299,-0.16 2.098,-0.115l0.12,-0.024c0.4,-0.082 0.579,-0.222 0.539,-0.422c-0.033,-0.16 -0.162,-0.383 -0.386,-0.67c-0.586,-0.422 -1.094,-0.672 -1.526,-0.751c-0.52,-0.102 -1.06,-0.096 -1.619,0.017c-0.64,0.131 -1.275,0.385 -1.905,0.762c-1.333,0.812 -2.22,1.971 -2.663,3.476Z" style="fill:#cc386b;fill-rule:nonzero;"/></g></svg>